<svg width="648" height="216" viewBox="0 0 648 216" fill="none" xmlns="http://www.w3.org/2000/svg">
<g filter="url(#filter0_d_1245_1008)">
<path d="M101 28.8779H545.38C567.292 28.8779 588.307 37.6794 603.801 53.3462C619.295 69.013 628 90.2618 628 112.418C628 134.574 619.295 155.823 603.801 171.49C588.307 187.156 567.292 195.958 545.38 195.958H101V28.8779Z" fill="white"/>
</g>
<path d="M204 111.775C204.025 132.077 198.064 151.93 186.871 168.822C175.679 185.715 159.757 198.887 141.121 206.674C122.486 214.461 101.973 216.511 82.1785 212.566C62.3841 208.621 44.1976 198.857 29.92 184.511C15.6423 170.164 5.91519 151.879 1.96923 131.969C-1.97674 112.059 0.0358035 91.4195 7.75221 72.6607C15.4686 53.9019 28.5421 37.8674 45.3187 26.5857C62.0952 15.304 81.8209 9.28224 102 9.28223V111.616L204 111.775Z" fill="url(#paint0_linear_1245_1008)"/>
<path d="M183.306 125.366C190.607 79.892 160.064 37.044 115.087 29.6625C70.1098 22.2811 27.7301 53.1613 20.4293 98.6354C13.1285 144.11 43.6712 186.958 88.6484 194.339C133.626 201.721 176.005 170.84 183.306 125.366Z" fill="white"/>
<path style="mix-blend-mode:multiply" d="M112.5 180.488C145.913 180.488 173 153.013 173 119.122C173 85.2303 145.913 57.7559 112.5 57.7559C79.0868 57.7559 52 85.2303 52 119.122C52 153.013 79.0868 180.488 112.5 180.488Z" fill="url(#paint1_radial_1245_1008)"/>
<path d="M164.209 0.00823014C154.846 0.940331 146.06 5.07516 139.263 11.7484C132.466 18.4217 128.052 27.2461 126.73 36.8038C126.73 36.9641 126.73 37.1564 126.73 37.3167C126.233 41.9317 123.992 46.1625 120.488 49.0994C116.983 52.0363 112.496 53.4448 107.99 53.0221C104.47 52.6685 100.924 52.6685 97.4028 53.0221C86.1428 53.8919 75.3929 58.1949 66.5327 65.3788C57.6726 72.5627 51.1063 82.2998 47.6766 93.3405C44.2469 104.381 44.1102 116.222 47.2841 127.343C50.458 138.464 56.7977 148.358 65.4895 155.755C74.1814 163.152 84.8289 167.716 96.0656 168.859C107.302 170.002 118.616 167.673 128.554 162.172C138.492 156.67 146.601 148.246 151.841 137.981C157.081 127.716 159.213 116.079 157.962 104.562C157.55 99.9378 158.923 95.3328 161.784 91.7366C164.646 88.1404 168.769 85.8401 173.266 85.3305H173.766C184.614 83.8448 194.461 78.0473 201.186 69.1858C207.912 60.3243 210.978 49.1072 209.725 37.9488C208.473 26.7904 203.001 16.5828 194.488 9.52297C185.976 2.46313 175.102 -0.884515 164.209 0.200546V0.00823014Z" fill="url(#paint2_linear_1245_1008)"/>
<path d="M168 74.2583C184.569 74.2583 198 60.8674 198 44.3489C198 27.8304 184.569 14.4395 168 14.4395C151.431 14.4395 138 27.8304 138 44.3489C138 60.8674 151.431 74.2583 168 74.2583Z" fill="white"/>
<path d="M183.596 46.4111V40.6518H179.893C179.586 39.3303 179.073 38.0667 178.374 36.9082L180.906 34.3164L176.918 30.2849L174.355 32.8446C173.209 32.1374 171.959 31.6189 170.652 31.3087V27.6611H164.955V31.3727C163.648 31.6829 162.399 32.2014 161.253 32.9086L158.689 30.3488L154.67 34.3804L157.234 36.9721C156.534 38.1307 156.021 39.3943 155.714 40.7157H152.202V46.4751H155.809C156.116 47.7966 156.629 49.0602 157.328 50.2187L154.765 52.8105L158.784 56.97L161.348 54.3783C162.494 55.0855 163.743 55.6039 165.05 55.9141V59.5938H170.747V55.7542C172.054 55.444 173.304 54.9255 174.45 54.2183L177.013 56.81L181 52.7465L178.469 50.1547C179.135 48.9903 179.616 47.7269 179.893 46.4111H183.596ZM167.772 50.2507C166.458 50.2507 165.173 49.8567 164.08 49.1183C162.987 48.38 162.135 47.3306 161.632 46.1028C161.129 44.875 160.997 43.524 161.254 42.2206C161.51 40.9172 162.143 39.7199 163.073 38.7802C164.002 37.8405 165.186 37.2005 166.475 36.9413C167.765 36.682 169.101 36.8151 170.315 37.3236C171.53 37.8322 172.568 38.6934 173.298 39.7984C174.028 40.9034 174.418 42.2025 174.418 43.5314C174.418 45.2916 173.735 46.9815 172.516 48.238C171.297 49.4945 169.639 50.2172 167.899 50.2507H167.772ZM167.772 45.9952C167.126 45.9952 166.506 45.7356 166.049 45.2736C165.592 44.8115 165.335 44.1849 165.335 43.5314C165.335 42.878 165.592 42.2514 166.049 41.7893C166.506 41.3273 167.126 41.0677 167.772 41.0677C168.418 41.0677 169.038 41.3273 169.495 41.7893C169.952 42.2514 170.209 42.878 170.209 43.5314C170.209 44.1849 169.952 44.8115 169.495 45.2736C169.038 45.7356 168.418 45.9952 167.772 45.9952Z" fill="url(#paint3_linear_1245_1008)"/>
<defs>
<filter id="filter0_d_1245_1008" x="81" y="8.87793" width="567" height="207.08" filterUnits="userSpaceOnUse" color-interpolation-filters="sRGB">
<feFlood flood-opacity="0" result="BackgroundImageFix"/>
<feColorMatrix in="SourceAlpha" type="matrix" values="0 0 0 0 0 0 0 0 0 0 0 0 0 0 0 0 0 0 127 0" result="hardAlpha"/>
<feOffset/>
<feGaussianBlur stdDeviation="10"/>
<feColorMatrix type="matrix" values="0 0 0 0 0 0 0 0 0 0 0 0 0 0 0 0 0 0 0.1 0"/>
<feBlend mode="normal" in2="BackgroundImageFix" result="effect1_dropShadow_1245_1008"/>
<feBlend mode="normal" in="SourceGraphic" in2="effect1_dropShadow_1245_1008" result="shape"/>
</filter>
<linearGradient id="paint0_linear_1245_1008" x1="9408.48" y1="14415.1" x2="22556.3" y2="14415.1" gradientUnits="userSpaceOnUse">
<stop stop-color="#FC5C7D"/>
<stop offset="1" stop-color="#6A82FB"/>
</linearGradient>
<radialGradient id="paint1_radial_1245_1008" cx="0" cy="0" r="1" gradientUnits="userSpaceOnUse" gradientTransform="translate(9941.33 8930.03) scale(2312.31 2345.4)">
<stop/>
<stop offset="1" stop-color="white"/>
</radialGradient>
<linearGradient id="paint2_linear_1245_1008" x1="7654.8" y1="11872.1" x2="18289" y2="11872.1" gradientUnits="userSpaceOnUse">
<stop stop-color="#FC5C7D"/>
<stop offset="1" stop-color="#6A82FB"/>
</linearGradient>
<linearGradient id="paint3_linear_1245_1008" x1="1600.09" y1="2269.01" x2="3623.42" y2="2269.01" gradientUnits="userSpaceOnUse">
<stop stop-color="#FC5C7D"/>
<stop offset="1" stop-color="#6A82FB"/>
</linearGradient>
</defs>
</svg>
