<svg width="648" height="216" viewBox="0 0 648 216" fill="none" xmlns="http://www.w3.org/2000/svg">
<g filter="url(#filter0_d_1245_1007)">
<path d="M101 28.8779H545.38C567.292 28.8779 588.307 37.6794 603.801 53.3462C619.295 69.013 628 90.2618 628 112.418C628 134.574 619.295 155.823 603.801 171.49C588.307 187.156 567.292 195.958 545.38 195.958H101V28.8779Z" fill="white"/>
</g>
<path d="M204 111.775C204.025 132.077 198.064 151.93 186.871 168.822C175.679 185.715 159.757 198.887 141.121 206.674C122.486 214.461 101.973 216.511 82.1785 212.566C62.3841 208.621 44.1976 198.857 29.92 184.511C15.6423 170.164 5.91519 151.879 1.96923 131.969C-1.97674 112.059 0.0358035 91.4195 7.75221 72.6607C15.4686 53.9019 28.5421 37.8674 45.3187 26.5857C62.0952 15.304 81.8209 9.28224 102 9.28223V111.616L204 111.775Z" fill="url(#paint0_linear_1245_1007)"/>
<path d="M183.306 125.366C190.607 79.892 160.064 37.044 115.087 29.6625C70.1098 22.2811 27.7301 53.1613 20.4293 98.6354C13.1285 144.11 43.6712 186.958 88.6484 194.339C133.626 201.721 176.005 170.84 183.306 125.366Z" fill="white"/>
<path style="mix-blend-mode:multiply" d="M112.5 180.488C145.913 180.488 173 153.013 173 119.122C173 85.2303 145.913 57.7559 112.5 57.7559C79.0868 57.7559 52 85.2303 52 119.122C52 153.013 79.0868 180.488 112.5 180.488Z" fill="url(#paint1_radial_1245_1007)"/>
<path d="M164.209 0.00823014C154.846 0.940331 146.06 5.07516 139.263 11.7484C132.466 18.4217 128.052 27.2461 126.73 36.8038C126.73 36.9641 126.73 37.1564 126.73 37.3167C126.233 41.9317 123.992 46.1625 120.488 49.0994C116.983 52.0363 112.496 53.4448 107.99 53.0221C104.47 52.6685 100.924 52.6685 97.4028 53.0221C86.1428 53.8919 75.3929 58.1949 66.5327 65.3788C57.6726 72.5627 51.1063 82.2998 47.6766 93.3405C44.2469 104.381 44.1102 116.222 47.2841 127.343C50.458 138.464 56.7977 148.358 65.4895 155.755C74.1814 163.152 84.8289 167.716 96.0656 168.859C107.302 170.002 118.616 167.673 128.554 162.172C138.492 156.67 146.601 148.246 151.841 137.981C157.081 127.716 159.213 116.079 157.962 104.562C157.55 99.9378 158.923 95.3328 161.784 91.7366C164.646 88.1404 168.769 85.8401 173.266 85.3305H173.766C184.614 83.8448 194.461 78.0473 201.186 69.1858C207.912 60.3243 210.978 49.1072 209.725 37.9488C208.473 26.7904 203.001 16.5828 194.488 9.52297C185.976 2.46313 175.102 -0.884515 164.209 0.200546V0.00823014Z" fill="url(#paint2_linear_1245_1007)"/>
<path d="M168 74.2583C184.569 74.2583 198 60.8674 198 44.3489C198 27.8304 184.569 14.4395 168 14.4395C151.431 14.4395 138 27.8304 138 44.3489C138 60.8674 151.431 74.2583 168 74.2583Z" fill="white"/>
<path d="M183.595 46.4111V40.6518H179.893C179.586 39.3303 179.073 38.0667 178.374 36.9082L180.905 34.3164L176.918 30.2849L174.355 32.8446C173.209 32.1374 171.959 31.6189 170.652 31.3087V27.6611H164.955V31.3727C163.648 31.6829 162.399 32.2014 161.253 32.9086L158.689 30.3488L154.67 34.3804L157.234 36.9721C156.534 38.1307 156.021 39.3943 155.714 40.7157H152.202V46.4751H155.809C156.116 47.7966 156.629 49.0602 157.328 50.2187L154.765 52.8105L158.784 56.97L161.348 54.3783C162.494 55.0855 163.743 55.6039 165.05 55.9141V59.5938H170.747V55.7542C172.054 55.444 173.304 54.9255 174.45 54.2183L177.013 56.81L181 52.7465L178.469 50.1547C179.135 48.9903 179.616 47.7269 179.893 46.4111H183.595ZM167.772 50.2507C166.458 50.2507 165.173 49.8567 164.08 49.1183C162.987 48.38 162.135 47.3306 161.632 46.1028C161.129 44.875 160.997 43.524 161.254 42.2206C161.51 40.9172 162.143 39.7199 163.073 38.7802C164.002 37.8405 165.186 37.2005 166.475 36.9413C167.765 36.682 169.101 36.8151 170.315 37.3236C171.53 37.8322 172.568 38.6934 173.298 39.7984C174.028 40.9034 174.418 42.2025 174.418 43.5314C174.418 45.2916 173.735 46.9815 172.516 48.238C171.297 49.4945 169.639 50.2172 167.899 50.2507H167.772ZM167.772 45.9952C167.126 45.9952 166.506 45.7356 166.049 45.2736C165.592 44.8115 165.335 44.1849 165.335 43.5314C165.335 42.878 165.592 42.2514 166.049 41.7893C166.506 41.3273 167.126 41.0677 167.772 41.0677C168.418 41.0677 169.038 41.3273 169.495 41.7893C169.952 42.2514 170.209 42.878 170.209 43.5314C170.209 44.1849 169.952 44.8115 169.495 45.2736C169.038 45.7356 168.418 45.9952 167.772 45.9952Z" fill="url(#paint3_linear_1245_1007)"/>
<path d="M246.86 83.0238C246.86 84.1838 246.46 85.1505 245.66 85.9238C244.873 86.6838 243.667 87.0638 242.04 87.0638H239.36V92.8838H237.54V78.9438H242.04C243.613 78.9438 244.807 79.3238 245.62 80.0838C246.447 80.8438 246.86 81.8238 246.86 83.0238ZM242.04 85.5638C243.053 85.5638 243.8 85.3438 244.28 84.9038C244.76 84.4638 245 83.8371 245 83.0238C245 81.3038 244.013 80.4438 242.04 80.4438H239.36V85.5638H242.04ZM259.522 86.9838C259.522 87.3305 259.502 87.6971 259.462 88.0838H250.702C250.769 89.1638 251.135 90.0105 251.802 90.6238C252.482 91.2238 253.302 91.5238 254.262 91.5238C255.049 91.5238 255.702 91.3438 256.222 90.9838C256.755 90.6105 257.129 90.1171 257.342 89.5038H259.302C259.009 90.5571 258.422 91.4171 257.542 92.0838C256.662 92.7371 255.569 93.0638 254.262 93.0638C253.222 93.0638 252.289 92.8305 251.462 92.3638C250.649 91.8971 250.009 91.2371 249.542 90.3838C249.075 89.5171 248.842 88.5171 248.842 87.3838C248.842 86.2505 249.069 85.2571 249.522 84.4038C249.975 83.5505 250.609 82.8971 251.422 82.4438C252.249 81.9771 253.195 81.7438 254.262 81.7438C255.302 81.7438 256.222 81.9705 257.022 82.4238C257.822 82.8771 258.435 83.5038 258.862 84.3038C259.302 85.0905 259.522 85.9838 259.522 86.9838ZM257.642 86.6038C257.642 85.9105 257.489 85.3171 257.182 84.8238C256.875 84.3171 256.455 83.9371 255.922 83.6838C255.402 83.4171 254.822 83.2838 254.182 83.2838C253.262 83.2838 252.475 83.5771 251.822 84.1638C251.182 84.7505 250.815 85.5638 250.722 86.6038H257.642ZM264.144 83.7038C264.464 83.0771 264.918 82.5905 265.504 82.2438C266.104 81.8971 266.831 81.7238 267.684 81.7238V83.6038H267.204C265.164 83.6038 264.144 84.7105 264.144 86.9238V92.8838H262.324V81.9238H264.144V83.7038ZM274.065 93.0638C273.225 93.0638 272.472 92.9238 271.805 92.6438C271.139 92.3505 270.612 91.9505 270.225 91.4438C269.839 90.9238 269.625 90.3305 269.585 89.6638H271.465C271.519 90.2105 271.772 90.6571 272.225 91.0038C272.692 91.3505 273.299 91.5238 274.045 91.5238C274.739 91.5238 275.285 91.3705 275.685 91.0638C276.085 90.7571 276.285 90.3705 276.285 89.9038C276.285 89.4238 276.072 89.0705 275.645 88.8438C275.219 88.6038 274.559 88.3705 273.665 88.1438C272.852 87.9305 272.185 87.7171 271.665 87.5038C271.159 87.2771 270.719 86.9505 270.345 86.5238C269.985 86.0838 269.805 85.5105 269.805 84.8038C269.805 84.2438 269.972 83.7305 270.305 83.2638C270.639 82.7971 271.112 82.4305 271.725 82.1638C272.339 81.8838 273.039 81.7438 273.825 81.7438C275.039 81.7438 276.019 82.0505 276.765 82.6638C277.512 83.2771 277.912 84.1171 277.965 85.1838H276.145C276.105 84.6105 275.872 84.1505 275.445 83.8038C275.032 83.4571 274.472 83.2838 273.765 83.2838C273.112 83.2838 272.592 83.4238 272.205 83.7038C271.819 83.9838 271.625 84.3505 271.625 84.8038C271.625 85.1638 271.739 85.4638 271.965 85.7038C272.205 85.9305 272.499 86.1171 272.845 86.2638C273.205 86.3971 273.699 86.5505 274.325 86.7238C275.112 86.9371 275.752 87.1505 276.245 87.3638C276.739 87.5638 277.159 87.8705 277.505 88.2838C277.865 88.6971 278.052 89.2371 278.065 89.9038C278.065 90.5038 277.899 91.0438 277.565 91.5238C277.232 92.0038 276.759 92.3838 276.145 92.6638C275.545 92.9305 274.852 93.0638 274.065 93.0638ZM285.815 93.0638C284.788 93.0638 283.855 92.8305 283.015 92.3638C282.188 91.8971 281.535 91.2371 281.055 90.3838C280.588 89.5171 280.355 88.5171 280.355 87.3838C280.355 86.2638 280.595 85.2771 281.075 84.4238C281.568 83.5571 282.235 82.8971 283.075 82.4438C283.915 81.9771 284.855 81.7438 285.895 81.7438C286.935 81.7438 287.875 81.9771 288.715 82.4438C289.555 82.8971 290.215 83.5505 290.695 84.4038C291.188 85.2571 291.435 86.2505 291.435 87.3838C291.435 88.5171 291.181 89.5171 290.675 90.3838C290.181 91.2371 289.508 91.8971 288.655 92.3638C287.801 92.8305 286.855 93.0638 285.815 93.0638ZM285.815 91.4638C286.468 91.4638 287.081 91.3105 287.655 91.0038C288.228 90.6971 288.688 90.2371 289.035 89.6238C289.395 89.0105 289.575 88.2638 289.575 87.3838C289.575 86.5038 289.401 85.7571 289.055 85.1438C288.708 84.5305 288.255 84.0771 287.695 83.7838C287.135 83.4771 286.528 83.3238 285.875 83.3238C285.208 83.3238 284.595 83.4771 284.035 83.7838C283.488 84.0771 283.048 84.5305 282.715 85.1438C282.381 85.7571 282.215 86.5038 282.215 87.3838C282.215 88.2771 282.375 89.0305 282.695 89.6438C283.028 90.2571 283.468 90.7171 284.015 91.0238C284.561 91.3171 285.161 91.4638 285.815 91.4638ZM299.568 81.7238C300.901 81.7238 301.981 82.1305 302.808 82.9438C303.634 83.7438 304.048 84.9038 304.048 86.4238V92.8838H302.248V86.6838C302.248 85.5905 301.974 84.7571 301.428 84.1838C300.881 83.5971 300.134 83.3038 299.188 83.3038C298.228 83.3038 297.461 83.6038 296.888 84.2038C296.328 84.8038 296.048 85.6771 296.048 86.8238V92.8838H294.228V81.9238H296.048V83.4838C296.408 82.9238 296.894 82.4905 297.508 82.1838C298.134 81.8771 298.821 81.7238 299.568 81.7238ZM306.74 87.3638C306.74 86.2438 306.967 85.2638 307.42 84.4238C307.874 83.5705 308.494 82.9105 309.28 82.4438C310.08 81.9771 310.967 81.7438 311.94 81.7438C312.9 81.7438 313.734 81.9505 314.44 82.3638C315.147 82.7771 315.674 83.2971 316.02 83.9238V81.9238H317.86V92.8838H316.02V90.8438C315.66 91.4838 315.12 92.0171 314.4 92.4438C313.694 92.8571 312.867 93.0638 311.92 93.0638C310.947 93.0638 310.067 92.8238 309.28 92.3438C308.494 91.8638 307.874 91.1905 307.42 90.3238C306.967 89.4571 306.74 88.4705 306.74 87.3638ZM316.02 87.3838C316.02 86.5571 315.854 85.8371 315.52 85.2238C315.187 84.6105 314.734 84.1438 314.16 83.8238C313.6 83.4905 312.98 83.3238 312.3 83.3238C311.62 83.3238 311 83.4838 310.44 83.8038C309.88 84.1238 309.434 84.5905 309.1 85.2038C308.767 85.8171 308.6 86.5371 308.6 87.3638C308.6 88.2038 308.767 88.9371 309.1 89.5638C309.434 90.1771 309.88 90.6505 310.44 90.9838C311 91.3038 311.62 91.4638 312.3 91.4638C312.98 91.4638 313.6 91.3038 314.16 90.9838C314.734 90.6505 315.187 90.1771 315.52 89.5638C315.854 88.9371 316.02 88.2105 316.02 87.3838ZM323.156 78.0838V92.8838H321.336V78.0838H323.156ZM327.598 80.1438C327.251 80.1438 326.958 80.0238 326.718 79.7838C326.478 79.5438 326.358 79.2505 326.358 78.9038C326.358 78.5571 326.478 78.2638 326.718 78.0238C326.958 77.7838 327.251 77.6638 327.598 77.6638C327.931 77.6638 328.211 77.7838 328.438 78.0238C328.678 78.2638 328.798 78.5571 328.798 78.9038C328.798 79.2505 328.678 79.5438 328.438 79.7838C328.211 80.0238 327.931 80.1438 327.598 80.1438ZM328.478 81.9238V92.8838H326.658V81.9238H328.478ZM333.34 91.3838H338.72V92.8838H331.26V91.3838L336.58 83.4038H331.3V81.9238H338.68V83.4038L333.34 91.3838ZM351.481 86.9838C351.481 87.3305 351.461 87.6971 351.421 88.0838H342.661C342.728 89.1638 343.095 90.0105 343.761 90.6238C344.441 91.2238 345.261 91.5238 346.221 91.5238C347.008 91.5238 347.661 91.3438 348.181 90.9838C348.715 90.6105 349.088 90.1171 349.301 89.5038H351.261C350.968 90.5571 350.381 91.4171 349.501 92.0838C348.621 92.7371 347.528 93.0638 346.221 93.0638C345.181 93.0638 344.248 92.8305 343.421 92.3638C342.608 91.8971 341.968 91.2371 341.501 90.3838C341.035 89.5171 340.801 88.5171 340.801 87.3838C340.801 86.2505 341.028 85.2571 341.481 84.4038C341.935 83.5505 342.568 82.8971 343.381 82.4438C344.208 81.9771 345.155 81.7438 346.221 81.7438C347.261 81.7438 348.181 81.9705 348.981 82.4238C349.781 82.8771 350.395 83.5038 350.821 84.3038C351.261 85.0905 351.481 85.9838 351.481 86.9838ZM349.601 86.6038C349.601 85.9105 349.448 85.3171 349.141 84.8238C348.835 84.3171 348.415 83.9371 347.881 83.6838C347.361 83.4171 346.781 83.2838 346.141 83.2838C345.221 83.2838 344.435 83.5771 343.781 84.1638C343.141 84.7505 342.775 85.5638 342.681 86.6038H349.601ZM353.604 87.3638C353.604 86.2438 353.83 85.2638 354.284 84.4238C354.737 83.5705 355.357 82.9105 356.144 82.4438C356.944 81.9771 357.837 81.7438 358.824 81.7438C359.677 81.7438 360.47 81.9438 361.204 82.3438C361.937 82.7305 362.497 83.2438 362.884 83.8838V78.0838H364.724V92.8838H362.884V90.8238C362.524 91.4771 361.99 92.0171 361.284 92.4438C360.577 92.8571 359.75 93.0638 358.804 93.0638C357.83 93.0638 356.944 92.8238 356.144 92.3438C355.357 91.8638 354.737 91.1905 354.284 90.3238C353.83 89.4571 353.604 88.4705 353.604 87.3638ZM362.884 87.3838C362.884 86.5571 362.717 85.8371 362.384 85.2238C362.05 84.6105 361.597 84.1438 361.024 83.8238C360.464 83.4905 359.844 83.3238 359.164 83.3238C358.484 83.3238 357.864 83.4838 357.304 83.8038C356.744 84.1238 356.297 84.5905 355.964 85.2038C355.63 85.8171 355.464 86.5371 355.464 87.3638C355.464 88.2038 355.63 88.9371 355.964 89.5638C356.297 90.1771 356.744 90.6505 357.304 90.9838C357.864 91.3038 358.484 91.4638 359.164 91.4638C359.844 91.4638 360.464 91.3038 361.024 90.9838C361.597 90.6505 362.05 90.1771 362.384 89.5638C362.717 88.9371 362.884 88.2105 362.884 87.3838ZM378.451 81.7438C379.398 81.7438 380.225 81.9505 380.931 82.3638C381.651 82.7771 382.185 83.2971 382.531 83.9238V81.9238H384.371V93.1238C384.371 94.1238 384.158 95.0105 383.731 95.7838C383.305 96.5705 382.691 97.1838 381.891 97.6238C381.105 98.0638 380.185 98.2838 379.131 98.2838C377.691 98.2838 376.491 97.9438 375.531 97.2638C374.571 96.5838 374.005 95.6571 373.831 94.4838H375.631C375.831 95.1505 376.245 95.6838 376.871 96.0838C377.498 96.4971 378.251 96.7038 379.131 96.7038C380.131 96.7038 380.945 96.3905 381.571 95.7638C382.211 95.1371 382.531 94.2571 382.531 93.1238V90.8238C382.171 91.4638 381.638 91.9971 380.931 92.4238C380.225 92.8505 379.398 93.0638 378.451 93.0638C377.478 93.0638 376.591 92.8238 375.791 92.3438C375.005 91.8638 374.385 91.1905 373.931 90.3238C373.478 89.4571 373.251 88.4705 373.251 87.3638C373.251 86.2438 373.478 85.2638 373.931 84.4238C374.385 83.5705 375.005 82.9105 375.791 82.4438C376.591 81.9771 377.478 81.7438 378.451 81.7438ZM382.531 87.3838C382.531 86.5571 382.365 85.8371 382.031 85.2238C381.698 84.6105 381.245 84.1438 380.671 83.8238C380.111 83.4905 379.491 83.3238 378.811 83.3238C378.131 83.3238 377.511 83.4838 376.951 83.8038C376.391 84.1238 375.945 84.5905 375.611 85.2038C375.278 85.8171 375.111 86.5371 375.111 87.3638C375.111 88.2038 375.278 88.9371 375.611 89.5638C375.945 90.1771 376.391 90.6505 376.951 90.9838C377.511 91.3038 378.131 91.4638 378.811 91.4638C379.491 91.4638 380.111 91.3038 380.671 90.9838C381.245 90.6505 381.698 90.1771 382.031 89.5638C382.365 88.9371 382.531 88.2105 382.531 87.3838ZM397.567 81.9238V92.8838H395.747V91.2638C395.4 91.8238 394.914 92.2638 394.287 92.5838C393.674 92.8905 392.994 93.0438 392.247 93.0438C391.394 93.0438 390.627 92.8705 389.947 92.5238C389.267 92.1638 388.727 91.6305 388.327 90.9238C387.94 90.2171 387.747 89.3571 387.747 88.3438V81.9238H389.547V88.1038C389.547 89.1838 389.82 90.0171 390.367 90.6038C390.914 91.1771 391.66 91.4638 392.607 91.4638C393.58 91.4638 394.347 91.1638 394.907 90.5638C395.467 89.9638 395.747 89.0905 395.747 87.9438V81.9238H397.567ZM401.98 80.1438C401.633 80.1438 401.34 80.0238 401.1 79.7838C400.86 79.5438 400.74 79.2505 400.74 78.9038C400.74 78.5571 400.86 78.2638 401.1 78.0238C401.34 77.7838 401.633 77.6638 401.98 77.6638C402.313 77.6638 402.593 77.7838 402.82 78.0238C403.06 78.2638 403.18 78.5571 403.18 78.9038C403.18 79.2505 403.06 79.5438 402.82 79.7838C402.593 80.0238 402.313 80.1438 401.98 80.1438ZM402.86 81.9238V92.8838H401.04V81.9238H402.86ZM405.682 87.3638C405.682 86.2438 405.909 85.2638 406.362 84.4238C406.815 83.5705 407.435 82.9105 408.222 82.4438C409.022 81.9771 409.915 81.7438 410.902 81.7438C411.755 81.7438 412.549 81.9438 413.282 82.3438C414.015 82.7305 414.575 83.2438 414.962 83.8838V78.0838H416.802V92.8838H414.962V90.8238C414.602 91.4771 414.069 92.0171 413.362 92.4438C412.655 92.8571 411.829 93.0638 410.882 93.0638C409.909 93.0638 409.022 92.8238 408.222 92.3438C407.435 91.8638 406.815 91.1905 406.362 90.3238C405.909 89.4571 405.682 88.4705 405.682 87.3638ZM414.962 87.3838C414.962 86.5571 414.795 85.8371 414.462 85.2238C414.129 84.6105 413.675 84.1438 413.102 83.8238C412.542 83.4905 411.922 83.3238 411.242 83.3238C410.562 83.3238 409.942 83.4838 409.382 83.8038C408.822 84.1238 408.375 84.5905 408.042 85.2038C407.709 85.8171 407.542 86.5371 407.542 87.3638C407.542 88.2038 407.709 88.9371 408.042 89.5638C408.375 90.1771 408.822 90.6505 409.382 90.9838C409.942 91.3038 410.562 91.4638 411.242 91.4638C411.922 91.4638 412.542 91.3038 413.102 90.9838C413.675 90.6505 414.129 90.1771 414.462 89.5638C414.795 88.9371 414.962 88.2105 414.962 87.3838ZM419.598 87.3638C419.598 86.2438 419.824 85.2638 420.278 84.4238C420.731 83.5705 421.351 82.9105 422.138 82.4438C422.938 81.9771 423.824 81.7438 424.798 81.7438C425.758 81.7438 426.591 81.9505 427.298 82.3638C428.004 82.7771 428.531 83.2971 428.878 83.9238V81.9238H430.718V92.8838H428.878V90.8438C428.518 91.4838 427.978 92.0171 427.258 92.4438C426.551 92.8571 425.724 93.0638 424.778 93.0638C423.804 93.0638 422.924 92.8238 422.138 92.3438C421.351 91.8638 420.731 91.1905 420.278 90.3238C419.824 89.4571 419.598 88.4705 419.598 87.3638ZM428.878 87.3838C428.878 86.5571 428.711 85.8371 428.378 85.2238C428.044 84.6105 427.591 84.1438 427.018 83.8238C426.458 83.4905 425.838 83.3238 425.158 83.3238C424.478 83.3238 423.858 83.4838 423.298 83.8038C422.738 84.1238 422.291 84.5905 421.958 85.2038C421.624 85.8171 421.458 86.5371 421.458 87.3638C421.458 88.2038 421.624 88.9371 421.958 89.5638C422.291 90.1771 422.738 90.6505 423.298 90.9838C423.858 91.3038 424.478 91.4638 425.158 91.4638C425.838 91.4638 426.458 91.3038 427.018 90.9838C427.591 90.6505 428.044 90.1771 428.378 89.5638C428.711 88.9371 428.878 88.2105 428.878 87.3838ZM439.533 81.7238C440.866 81.7238 441.946 82.1305 442.773 82.9438C443.6 83.7438 444.013 84.9038 444.013 86.4238V92.8838H442.213V86.6838C442.213 85.5905 441.94 84.7571 441.393 84.1838C440.846 83.5971 440.1 83.3038 439.153 83.3038C438.193 83.3038 437.426 83.6038 436.853 84.2038C436.293 84.8038 436.013 85.6771 436.013 86.8238V92.8838H434.193V81.9238H436.013V83.4838C436.373 82.9238 436.86 82.4905 437.473 82.1838C438.1 81.8771 438.786 81.7238 439.533 81.7238ZM446.706 87.3838C446.706 86.2505 446.933 85.2638 447.386 84.4238C447.839 83.5705 448.466 82.9105 449.266 82.4438C450.079 81.9771 451.006 81.7438 452.046 81.7438C453.393 81.7438 454.499 82.0705 455.366 82.7238C456.246 83.3771 456.826 84.2838 457.106 85.4438H455.146C454.959 84.7771 454.593 84.2505 454.046 83.8638C453.513 83.4771 452.846 83.2838 452.046 83.2838C451.006 83.2838 450.166 83.6438 449.526 84.3638C448.886 85.0705 448.566 86.0771 448.566 87.3838C448.566 88.7038 448.886 89.7238 449.526 90.4438C450.166 91.1638 451.006 91.5238 452.046 91.5238C452.846 91.5238 453.513 91.3371 454.046 90.9638C454.579 90.5905 454.946 90.0571 455.146 89.3638H457.106C456.813 90.4838 456.226 91.3838 455.346 92.0638C454.466 92.7305 453.366 93.0638 452.046 93.0638C451.006 93.0638 450.079 92.8305 449.266 92.3638C448.466 91.8971 447.839 91.2371 447.386 90.3838C446.933 89.5305 446.706 88.5305 446.706 87.3838ZM469.935 86.9838C469.935 87.3305 469.915 87.6971 469.875 88.0838H461.115C461.181 89.1638 461.548 90.0105 462.215 90.6238C462.895 91.2238 463.715 91.5238 464.675 91.5238C465.461 91.5238 466.115 91.3438 466.635 90.9838C467.168 90.6105 467.541 90.1171 467.755 89.5038H469.715C469.421 90.5571 468.835 91.4171 467.955 92.0838C467.075 92.7371 465.981 93.0638 464.675 93.0638C463.635 93.0638 462.701 92.8305 461.875 92.3638C461.061 91.8971 460.421 91.2371 459.955 90.3838C459.488 89.5171 459.255 88.5171 459.255 87.3838C459.255 86.2505 459.481 85.2571 459.935 84.4038C460.388 83.5505 461.021 82.8971 461.835 82.4438C462.661 81.9771 463.608 81.7438 464.675 81.7438C465.715 81.7438 466.635 81.9705 467.435 82.4238C468.235 82.8771 468.848 83.5038 469.275 84.3038C469.715 85.0905 469.935 85.9838 469.935 86.9838ZM468.055 86.6038C468.055 85.9105 467.901 85.3171 467.595 84.8238C467.288 84.3171 466.868 83.9371 466.335 83.6838C465.815 83.4171 465.235 83.2838 464.595 83.2838C463.675 83.2838 462.888 83.5771 462.235 84.1638C461.595 84.7505 461.228 85.5638 461.135 86.6038H468.055ZM242 114.424H239.7V123.884H237.88V114.424H236.46V112.924H237.88V112.144C237.88 110.917 238.193 110.024 238.82 109.464C239.46 108.89 240.48 108.604 241.88 108.604V110.124C241.08 110.124 240.513 110.284 240.18 110.604C239.86 110.91 239.7 111.424 239.7 112.144V112.924H242V114.424ZM246.342 114.704C246.662 114.077 247.115 113.59 247.702 113.244C248.302 112.897 249.029 112.724 249.882 112.724V114.604H249.402C247.362 114.604 246.342 115.71 246.342 117.924V123.884H244.522V112.924H246.342V114.704ZM257.163 124.064C256.136 124.064 255.203 123.83 254.363 123.364C253.536 122.897 252.883 122.237 252.403 121.384C251.936 120.517 251.703 119.517 251.703 118.384C251.703 117.264 251.943 116.277 252.423 115.424C252.916 114.557 253.583 113.897 254.423 113.444C255.263 112.977 256.203 112.744 257.243 112.744C258.283 112.744 259.223 112.977 260.063 113.444C260.903 113.897 261.563 114.55 262.043 115.404C262.536 116.257 262.783 117.25 262.783 118.384C262.783 119.517 262.53 120.517 262.023 121.384C261.53 122.237 260.856 122.897 260.003 123.364C259.15 123.83 258.203 124.064 257.163 124.064ZM257.163 122.464C257.816 122.464 258.43 122.31 259.003 122.004C259.576 121.697 260.036 121.237 260.383 120.624C260.743 120.01 260.923 119.264 260.923 118.384C260.923 117.504 260.75 116.757 260.403 116.144C260.056 115.53 259.603 115.077 259.043 114.784C258.483 114.477 257.876 114.324 257.223 114.324C256.556 114.324 255.943 114.477 255.383 114.784C254.836 115.077 254.396 115.53 254.063 116.144C253.73 116.757 253.563 117.504 253.563 118.384C253.563 119.277 253.723 120.03 254.043 120.644C254.376 121.257 254.816 121.717 255.363 122.024C255.91 122.317 256.51 122.464 257.163 122.464ZM278.756 112.724C279.609 112.724 280.369 112.904 281.036 113.264C281.703 113.61 282.229 114.137 282.616 114.844C283.003 115.55 283.196 116.41 283.196 117.424V123.884H281.396V117.684C281.396 116.59 281.123 115.757 280.576 115.184C280.043 114.597 279.316 114.304 278.396 114.304C277.449 114.304 276.696 114.61 276.136 115.224C275.576 115.824 275.296 116.697 275.296 117.844V123.884H273.496V117.684C273.496 116.59 273.223 115.757 272.676 115.184C272.143 114.597 271.416 114.304 270.496 114.304C269.549 114.304 268.796 114.61 268.236 115.224C267.676 115.824 267.396 116.697 267.396 117.844V123.884H265.576V112.924H267.396V114.504C267.756 113.93 268.236 113.49 268.836 113.184C269.449 112.877 270.123 112.724 270.856 112.724C271.776 112.724 272.589 112.93 273.296 113.344C274.003 113.757 274.529 114.364 274.876 115.164C275.183 114.39 275.689 113.79 276.396 113.364C277.103 112.937 277.889 112.724 278.756 112.724ZM296.193 124.064C295.353 124.064 294.6 123.924 293.933 123.644C293.267 123.35 292.74 122.95 292.353 122.444C291.967 121.924 291.753 121.33 291.713 120.664H293.593C293.647 121.21 293.9 121.657 294.353 122.004C294.82 122.35 295.427 122.524 296.173 122.524C296.867 122.524 297.413 122.37 297.813 122.064C298.213 121.757 298.413 121.37 298.413 120.904C298.413 120.424 298.2 120.07 297.773 119.844C297.347 119.604 296.687 119.37 295.793 119.144C294.98 118.93 294.313 118.717 293.793 118.504C293.287 118.277 292.847 117.95 292.473 117.524C292.113 117.084 291.933 116.51 291.933 115.804C291.933 115.244 292.1 114.73 292.433 114.264C292.767 113.797 293.24 113.43 293.853 113.164C294.467 112.884 295.167 112.744 295.953 112.744C297.167 112.744 298.147 113.05 298.893 113.664C299.64 114.277 300.04 115.117 300.093 116.184H298.273C298.233 115.61 298 115.15 297.573 114.804C297.16 114.457 296.6 114.284 295.893 114.284C295.24 114.284 294.72 114.424 294.333 114.704C293.947 114.984 293.753 115.35 293.753 115.804C293.753 116.164 293.867 116.464 294.093 116.704C294.333 116.93 294.627 117.117 294.973 117.264C295.333 117.397 295.827 117.55 296.453 117.724C297.24 117.937 297.88 118.15 298.373 118.364C298.867 118.564 299.287 118.87 299.633 119.284C299.993 119.697 300.18 120.237 300.193 120.904C300.193 121.504 300.027 122.044 299.693 122.524C299.36 123.004 298.887 123.384 298.273 123.664C297.673 123.93 296.98 124.064 296.193 124.064ZM313.163 117.984C313.163 118.33 313.143 118.697 313.103 119.084H304.343C304.409 120.164 304.776 121.01 305.443 121.624C306.123 122.224 306.943 122.524 307.903 122.524C308.689 122.524 309.343 122.344 309.863 121.984C310.396 121.61 310.769 121.117 310.983 120.504H312.943C312.649 121.557 312.063 122.417 311.183 123.084C310.303 123.737 309.209 124.064 307.903 124.064C306.863 124.064 305.929 123.83 305.103 123.364C304.289 122.897 303.649 122.237 303.183 121.384C302.716 120.517 302.483 119.517 302.483 118.384C302.483 117.25 302.709 116.257 303.163 115.404C303.616 114.55 304.249 113.897 305.063 113.444C305.889 112.977 306.836 112.744 307.903 112.744C308.943 112.744 309.863 112.97 310.663 113.424C311.463 113.877 312.076 114.504 312.503 115.304C312.943 116.09 313.163 116.984 313.163 117.984ZM311.283 117.604C311.283 116.91 311.129 116.317 310.823 115.824C310.516 115.317 310.096 114.937 309.563 114.684C309.043 114.417 308.463 114.284 307.823 114.284C306.903 114.284 306.116 114.577 305.463 115.164C304.823 115.75 304.456 116.564 304.363 117.604H311.283ZM317.785 114.704C318.105 114.077 318.558 113.59 319.145 113.244C319.745 112.897 320.472 112.724 321.325 112.724V114.604H320.845C318.805 114.604 317.785 115.71 317.785 117.924V123.884H315.965V112.924H317.785V114.704ZM324.766 111.144C324.419 111.144 324.126 111.024 323.886 110.784C323.646 110.544 323.526 110.25 323.526 109.904C323.526 109.557 323.646 109.264 323.886 109.024C324.126 108.784 324.419 108.664 324.766 108.664C325.099 108.664 325.379 108.784 325.606 109.024C325.846 109.264 325.966 109.557 325.966 109.904C325.966 110.25 325.846 110.544 325.606 110.784C325.379 111.024 325.099 111.144 324.766 111.144ZM325.646 112.924V123.884H323.826V112.924H325.646ZM328.468 118.364C328.468 117.244 328.694 116.264 329.148 115.424C329.601 114.57 330.221 113.91 331.008 113.444C331.808 112.977 332.694 112.744 333.668 112.744C334.628 112.744 335.461 112.95 336.168 113.364C336.874 113.777 337.401 114.297 337.748 114.924V112.924H339.588V123.884H337.748V121.844C337.388 122.484 336.848 123.017 336.128 123.444C335.421 123.857 334.594 124.064 333.648 124.064C332.674 124.064 331.794 123.824 331.008 123.344C330.221 122.864 329.601 122.19 329.148 121.324C328.694 120.457 328.468 119.47 328.468 118.364ZM337.748 118.384C337.748 117.557 337.581 116.837 337.248 116.224C336.914 115.61 336.461 115.144 335.888 114.824C335.328 114.49 334.708 114.324 334.028 114.324C333.348 114.324 332.728 114.484 332.168 114.804C331.608 115.124 331.161 115.59 330.828 116.204C330.494 116.817 330.328 117.537 330.328 118.364C330.328 119.204 330.494 119.937 330.828 120.564C331.161 121.177 331.608 121.65 332.168 121.984C332.728 122.304 333.348 122.464 334.028 122.464C334.708 122.464 335.328 122.304 335.888 121.984C336.461 121.65 336.914 121.177 337.248 120.564C337.581 119.937 337.748 119.21 337.748 118.384ZM344.883 109.084V123.884H343.063V109.084H344.883ZM358.577 114.424H356.277V123.884H354.457V114.424H353.037V112.924H354.457V112.144C354.457 110.917 354.771 110.024 355.397 109.464C356.037 108.89 357.057 108.604 358.457 108.604V110.124C357.657 110.124 357.091 110.284 356.757 110.604C356.437 110.91 356.277 111.424 356.277 112.144V112.924H358.577V114.424ZM365.879 124.064C364.853 124.064 363.919 123.83 363.079 123.364C362.253 122.897 361.599 122.237 361.119 121.384C360.653 120.517 360.419 119.517 360.419 118.384C360.419 117.264 360.659 116.277 361.139 115.424C361.633 114.557 362.299 113.897 363.139 113.444C363.979 112.977 364.919 112.744 365.959 112.744C366.999 112.744 367.939 112.977 368.779 113.444C369.619 113.897 370.279 114.55 370.759 115.404C371.253 116.257 371.499 117.25 371.499 118.384C371.499 119.517 371.246 120.517 370.739 121.384C370.246 122.237 369.573 122.897 368.719 123.364C367.866 123.83 366.919 124.064 365.879 124.064ZM365.879 122.464C366.533 122.464 367.146 122.31 367.719 122.004C368.293 121.697 368.753 121.237 369.099 120.624C369.459 120.01 369.639 119.264 369.639 118.384C369.639 117.504 369.466 116.757 369.119 116.144C368.773 115.53 368.319 115.077 367.759 114.784C367.199 114.477 366.593 114.324 365.939 114.324C365.273 114.324 364.659 114.477 364.099 114.784C363.553 115.077 363.113 115.53 362.779 116.144C362.446 116.757 362.279 117.504 362.279 118.384C362.279 119.277 362.439 120.03 362.759 120.644C363.093 121.257 363.533 121.717 364.079 122.024C364.626 122.317 365.226 122.464 365.879 122.464ZM384.012 112.924V123.884H382.192V122.264C381.846 122.824 381.359 123.264 380.732 123.584C380.119 123.89 379.439 124.044 378.692 124.044C377.839 124.044 377.072 123.87 376.392 123.524C375.712 123.164 375.172 122.63 374.772 121.924C374.386 121.217 374.192 120.357 374.192 119.344V112.924H375.992V119.104C375.992 120.184 376.266 121.017 376.812 121.604C377.359 122.177 378.106 122.464 379.052 122.464C380.026 122.464 380.792 122.164 381.352 121.564C381.912 120.964 382.192 120.09 382.192 118.944V112.924H384.012ZM392.825 112.724C394.159 112.724 395.239 113.13 396.065 113.944C396.892 114.744 397.305 115.904 397.305 117.424V123.884H395.505V117.684C395.505 116.59 395.232 115.757 394.685 115.184C394.139 114.597 393.392 114.304 392.445 114.304C391.485 114.304 390.719 114.604 390.145 115.204C389.585 115.804 389.305 116.677 389.305 117.824V123.884H387.485V112.924H389.305V114.484C389.665 113.924 390.152 113.49 390.765 113.184C391.392 112.877 392.079 112.724 392.825 112.724ZM399.998 118.364C399.998 117.244 400.225 116.264 400.678 115.424C401.132 114.57 401.752 113.91 402.538 113.444C403.338 112.977 404.232 112.744 405.218 112.744C406.072 112.744 406.865 112.944 407.598 113.344C408.332 113.73 408.892 114.244 409.278 114.884V109.084H411.118V123.884H409.278V121.824C408.918 122.477 408.385 123.017 407.678 123.444C406.972 123.857 406.145 124.064 405.198 124.064C404.225 124.064 403.338 123.824 402.538 123.344C401.752 122.864 401.132 122.19 400.678 121.324C400.225 120.457 399.998 119.47 399.998 118.364ZM409.278 118.384C409.278 117.557 409.112 116.837 408.778 116.224C408.445 115.61 407.992 115.144 407.418 114.824C406.858 114.49 406.238 114.324 405.558 114.324C404.878 114.324 404.258 114.484 403.698 114.804C403.138 115.124 402.692 115.59 402.358 116.204C402.025 116.817 401.858 117.537 401.858 118.364C401.858 119.204 402.025 119.937 402.358 120.564C402.692 121.177 403.138 121.65 403.698 121.984C404.258 122.304 404.878 122.464 405.558 122.464C406.238 122.464 406.858 122.304 407.418 121.984C407.992 121.65 408.445 121.177 408.778 120.564C409.112 119.937 409.278 119.21 409.278 118.384ZM424.594 117.984C424.594 118.33 424.574 118.697 424.534 119.084H415.774C415.841 120.164 416.207 121.01 416.874 121.624C417.554 122.224 418.374 122.524 419.334 122.524C420.121 122.524 420.774 122.344 421.294 121.984C421.827 121.61 422.201 121.117 422.414 120.504H424.374C424.081 121.557 423.494 122.417 422.614 123.084C421.734 123.737 420.641 124.064 419.334 124.064C418.294 124.064 417.361 123.83 416.534 123.364C415.721 122.897 415.081 122.237 414.614 121.384C414.147 120.517 413.914 119.517 413.914 118.384C413.914 117.25 414.141 116.257 414.594 115.404C415.047 114.55 415.681 113.897 416.494 113.444C417.321 112.977 418.267 112.744 419.334 112.744C420.374 112.744 421.294 112.97 422.094 113.424C422.894 113.877 423.507 114.504 423.934 115.304C424.374 116.09 424.594 116.984 424.594 117.984ZM422.714 117.604C422.714 116.91 422.561 116.317 422.254 115.824C421.947 115.317 421.527 114.937 420.994 114.684C420.474 114.417 419.894 114.284 419.254 114.284C418.334 114.284 417.547 114.577 416.894 115.164C416.254 115.75 415.887 116.564 415.794 117.604H422.714ZM429.216 114.704C429.536 114.077 429.99 113.59 430.576 113.244C431.176 112.897 431.903 112.724 432.756 112.724V114.604H432.276C430.236 114.604 429.216 115.71 429.216 117.924V123.884H427.396V112.924H429.216V114.704ZM439.137 124.064C438.297 124.064 437.544 123.924 436.877 123.644C436.211 123.35 435.684 122.95 435.297 122.444C434.911 121.924 434.697 121.33 434.657 120.664H436.537C436.591 121.21 436.844 121.657 437.297 122.004C437.764 122.35 438.371 122.524 439.117 122.524C439.811 122.524 440.357 122.37 440.757 122.064C441.157 121.757 441.357 121.37 441.357 120.904C441.357 120.424 441.144 120.07 440.717 119.844C440.291 119.604 439.631 119.37 438.737 119.144C437.924 118.93 437.257 118.717 436.737 118.504C436.231 118.277 435.791 117.95 435.417 117.524C435.057 117.084 434.877 116.51 434.877 115.804C434.877 115.244 435.044 114.73 435.377 114.264C435.711 113.797 436.184 113.43 436.797 113.164C437.411 112.884 438.111 112.744 438.897 112.744C440.111 112.744 441.091 113.05 441.837 113.664C442.584 114.277 442.984 115.117 443.037 116.184H441.217C441.177 115.61 440.944 115.15 440.517 114.804C440.104 114.457 439.544 114.284 438.837 114.284C438.184 114.284 437.664 114.424 437.277 114.704C436.891 114.984 436.697 115.35 436.697 115.804C436.697 116.164 436.811 116.464 437.037 116.704C437.277 116.93 437.571 117.117 437.917 117.264C438.277 117.397 438.771 117.55 439.397 117.724C440.184 117.937 440.824 118.15 441.317 118.364C441.811 118.564 442.231 118.87 442.577 119.284C442.937 119.697 443.124 120.237 443.137 120.904C443.137 121.504 442.971 122.044 442.637 122.524C442.304 123.004 441.831 123.384 441.217 123.664C440.617 123.93 439.924 124.064 439.137 124.064ZM451.158 118.364C451.158 117.244 451.385 116.264 451.838 115.424C452.292 114.57 452.912 113.91 453.698 113.444C454.498 112.977 455.385 112.744 456.358 112.744C457.318 112.744 458.152 112.95 458.858 113.364C459.565 113.777 460.092 114.297 460.438 114.924V112.924H462.278V123.884H460.438V121.844C460.078 122.484 459.538 123.017 458.818 123.444C458.112 123.857 457.285 124.064 456.338 124.064C455.365 124.064 454.485 123.824 453.698 123.344C452.912 122.864 452.292 122.19 451.838 121.324C451.385 120.457 451.158 119.47 451.158 118.364ZM460.438 118.384C460.438 117.557 460.272 116.837 459.938 116.224C459.605 115.61 459.152 115.144 458.578 114.824C458.018 114.49 457.398 114.324 456.718 114.324C456.038 114.324 455.418 114.484 454.858 114.804C454.298 115.124 453.852 115.59 453.518 116.204C453.185 116.817 453.018 117.537 453.018 118.364C453.018 119.204 453.185 119.937 453.518 120.564C453.852 121.177 454.298 121.65 454.858 121.984C455.418 122.304 456.038 122.464 456.718 122.464C457.398 122.464 458.018 122.304 458.578 121.984C459.152 121.65 459.605 121.177 459.938 120.564C460.272 119.937 460.438 119.21 460.438 118.384ZM471.094 112.724C472.427 112.724 473.507 113.13 474.334 113.944C475.161 114.744 475.574 115.904 475.574 117.424V123.884H473.774V117.684C473.774 116.59 473.501 115.757 472.954 115.184C472.407 114.597 471.661 114.304 470.714 114.304C469.754 114.304 468.987 114.604 468.414 115.204C467.854 115.804 467.574 116.677 467.574 117.824V123.884H465.754V112.924H467.574V114.484C467.934 113.924 468.421 113.49 469.034 113.184C469.661 112.877 470.347 112.724 471.094 112.724ZM478.267 118.364C478.267 117.244 478.494 116.264 478.947 115.424C479.4 114.57 480.02 113.91 480.807 113.444C481.607 112.977 482.5 112.744 483.487 112.744C484.34 112.744 485.134 112.944 485.867 113.344C486.6 113.73 487.16 114.244 487.547 114.884V109.084H489.387V123.884H487.547V121.824C487.187 122.477 486.654 123.017 485.947 123.444C485.24 123.857 484.414 124.064 483.467 124.064C482.494 124.064 481.607 123.824 480.807 123.344C480.02 122.864 479.4 122.19 478.947 121.324C478.494 120.457 478.267 119.47 478.267 118.364ZM487.547 118.384C487.547 117.557 487.38 116.837 487.047 116.224C486.714 115.61 486.26 115.144 485.687 114.824C485.127 114.49 484.507 114.324 483.827 114.324C483.147 114.324 482.527 114.484 481.967 114.804C481.407 115.124 480.96 115.59 480.627 116.204C480.294 116.817 480.127 117.537 480.127 118.364C480.127 119.204 480.294 119.937 480.627 120.564C480.96 121.177 481.407 121.65 481.967 121.984C482.527 122.304 483.147 122.464 483.827 122.464C484.507 122.464 485.127 122.304 485.687 121.984C486.26 121.65 486.714 121.177 487.047 120.564C487.38 119.937 487.547 119.21 487.547 118.384ZM499.535 111.144C499.188 111.144 498.895 111.024 498.655 110.784C498.415 110.544 498.295 110.25 498.295 109.904C498.295 109.557 498.415 109.264 498.655 109.024C498.895 108.784 499.188 108.664 499.535 108.664C499.868 108.664 500.148 108.784 500.375 109.024C500.615 109.264 500.735 109.557 500.735 109.904C500.735 110.25 500.615 110.544 500.375 110.784C500.148 111.024 499.868 111.144 499.535 111.144ZM500.415 112.924V123.884H498.595V112.924H500.415ZM509.257 112.724C510.59 112.724 511.67 113.13 512.497 113.944C513.323 114.744 513.737 115.904 513.737 117.424V123.884H511.937V117.684C511.937 116.59 511.663 115.757 511.117 115.184C510.57 114.597 509.823 114.304 508.877 114.304C507.917 114.304 507.15 114.604 506.577 115.204C506.017 115.804 505.737 116.677 505.737 117.824V123.884H503.917V112.924H505.737V114.484C506.097 113.924 506.583 113.49 507.197 113.184C507.823 112.877 508.51 112.724 509.257 112.724ZM521.19 122.204L524.59 112.924H526.53L522.23 123.884H520.11L515.81 112.924H517.77L521.19 122.204ZM538.72 117.984C538.72 118.33 538.7 118.697 538.66 119.084H529.9C529.967 120.164 530.334 121.01 531 121.624C531.68 122.224 532.5 122.524 533.46 122.524C534.247 122.524 534.9 122.344 535.42 121.984C535.954 121.61 536.327 121.117 536.54 120.504H538.5C538.207 121.557 537.62 122.417 536.74 123.084C535.86 123.737 534.767 124.064 533.46 124.064C532.42 124.064 531.487 123.83 530.66 123.364C529.847 122.897 529.207 122.237 528.74 121.384C528.274 120.517 528.04 119.517 528.04 118.384C528.04 117.25 528.267 116.257 528.72 115.404C529.174 114.55 529.807 113.897 530.62 113.444C531.447 112.977 532.394 112.744 533.46 112.744C534.5 112.744 535.42 112.97 536.22 113.424C537.02 113.877 537.634 114.504 538.06 115.304C538.5 116.09 538.72 116.984 538.72 117.984ZM536.84 117.604C536.84 116.91 536.687 116.317 536.38 115.824C536.074 115.317 535.654 114.937 535.12 114.684C534.6 114.417 534.02 114.284 533.38 114.284C532.46 114.284 531.674 114.577 531.02 115.164C530.38 115.75 530.014 116.564 529.92 117.604H536.84ZM545.403 124.064C544.563 124.064 543.809 123.924 543.143 123.644C542.476 123.35 541.949 122.95 541.563 122.444C541.176 121.924 540.963 121.33 540.923 120.664H542.803C542.856 121.21 543.109 121.657 543.563 122.004C544.029 122.35 544.636 122.524 545.383 122.524C546.076 122.524 546.623 122.37 547.023 122.064C547.423 121.757 547.623 121.37 547.623 120.904C547.623 120.424 547.409 120.07 546.983 119.844C546.556 119.604 545.896 119.37 545.003 119.144C544.189 118.93 543.523 118.717 543.003 118.504C542.496 118.277 542.056 117.95 541.683 117.524C541.323 117.084 541.143 116.51 541.143 115.804C541.143 115.244 541.309 114.73 541.643 114.264C541.976 113.797 542.449 113.43 543.063 113.164C543.676 112.884 544.376 112.744 545.163 112.744C546.376 112.744 547.356 113.05 548.103 113.664C548.849 114.277 549.249 115.117 549.303 116.184H547.483C547.443 115.61 547.209 115.15 546.783 114.804C546.369 114.457 545.809 114.284 545.103 114.284C544.449 114.284 543.929 114.424 543.543 114.704C543.156 114.984 542.963 115.35 542.963 115.804C542.963 116.164 543.076 116.464 543.303 116.704C543.543 116.93 543.836 117.117 544.183 117.264C544.543 117.397 545.036 117.55 545.663 117.724C546.449 117.937 547.089 118.15 547.583 118.364C548.076 118.564 548.496 118.87 548.843 119.284C549.203 119.697 549.389 120.237 549.403 120.904C549.403 121.504 549.236 122.044 548.903 122.524C548.569 123.004 548.096 123.384 547.483 123.664C546.883 123.93 546.189 124.064 545.403 124.064ZM554.592 114.424V120.884C554.592 121.417 554.705 121.797 554.932 122.024C555.159 122.237 555.552 122.344 556.112 122.344H557.452V123.884H555.812C554.799 123.884 554.039 123.65 553.532 123.184C553.025 122.717 552.772 121.95 552.772 120.884V114.424H551.352V112.924H552.772V110.164H554.592V112.924H557.452V114.424H554.592ZM564.837 124.064C563.811 124.064 562.877 123.83 562.037 123.364C561.211 122.897 560.557 122.237 560.077 121.384C559.611 120.517 559.377 119.517 559.377 118.384C559.377 117.264 559.617 116.277 560.097 115.424C560.591 114.557 561.257 113.897 562.097 113.444C562.937 112.977 563.877 112.744 564.917 112.744C565.957 112.744 566.897 112.977 567.737 113.444C568.577 113.897 569.237 114.55 569.717 115.404C570.211 116.257 570.457 117.25 570.457 118.384C570.457 119.517 570.204 120.517 569.697 121.384C569.204 122.237 568.531 122.897 567.677 123.364C566.824 123.83 565.877 124.064 564.837 124.064ZM564.837 122.464C565.491 122.464 566.104 122.31 566.677 122.004C567.251 121.697 567.711 121.237 568.057 120.624C568.417 120.01 568.597 119.264 568.597 118.384C568.597 117.504 568.424 116.757 568.077 116.144C567.731 115.53 567.277 115.077 566.717 114.784C566.157 114.477 565.551 114.324 564.897 114.324C564.231 114.324 563.617 114.477 563.057 114.784C562.511 115.077 562.071 115.53 561.737 116.144C561.404 116.757 561.237 117.504 561.237 118.384C561.237 119.277 561.397 120.03 561.717 120.644C562.051 121.257 562.491 121.717 563.037 122.024C563.584 122.317 564.184 122.464 564.837 122.464ZM575.07 114.704C575.39 114.077 575.843 113.59 576.43 113.244C577.03 112.897 577.757 112.724 578.61 112.724V114.604H578.13C576.09 114.604 575.07 115.71 575.07 117.924V123.884H573.25V112.924H575.07V114.704ZM584.991 124.064C584.151 124.064 583.398 123.924 582.731 123.644C582.064 123.35 581.538 122.95 581.151 122.444C580.764 121.924 580.551 121.33 580.511 120.664H582.391C582.444 121.21 582.698 121.657 583.151 122.004C583.618 122.35 584.224 122.524 584.971 122.524C585.664 122.524 586.211 122.37 586.611 122.064C587.011 121.757 587.211 121.37 587.211 120.904C587.211 120.424 586.998 120.07 586.571 119.844C586.144 119.604 585.484 119.37 584.591 119.144C583.778 118.93 583.111 118.717 582.591 118.504C582.084 118.277 581.644 117.95 581.271 117.524C580.911 117.084 580.731 116.51 580.731 115.804C580.731 115.244 580.898 114.73 581.231 114.264C581.564 113.797 582.038 113.43 582.651 113.164C583.264 112.884 583.964 112.744 584.751 112.744C585.964 112.744 586.944 113.05 587.691 113.664C588.438 114.277 588.838 115.117 588.891 116.184H587.071C587.031 115.61 586.798 115.15 586.371 114.804C585.958 114.457 585.398 114.284 584.691 114.284C584.038 114.284 583.518 114.424 583.131 114.704C582.744 114.984 582.551 115.35 582.551 115.804C582.551 116.164 582.664 116.464 582.891 116.704C583.131 116.93 583.424 117.117 583.771 117.264C584.131 117.397 584.624 117.55 585.251 117.724C586.038 117.937 586.678 118.15 587.171 118.364C587.664 118.564 588.084 118.87 588.431 119.284C588.791 119.697 588.978 120.237 588.991 120.904C588.991 121.504 588.824 122.044 588.491 122.524C588.158 123.004 587.684 123.384 587.071 123.664C586.471 123.93 585.778 124.064 584.991 124.064Z" fill="#111111"/>
<defs>
<filter id="filter0_d_1245_1007" x="81" y="8.87793" width="567" height="207.08" filterUnits="userSpaceOnUse" color-interpolation-filters="sRGB">
<feFlood flood-opacity="0" result="BackgroundImageFix"/>
<feColorMatrix in="SourceAlpha" type="matrix" values="0 0 0 0 0 0 0 0 0 0 0 0 0 0 0 0 0 0 127 0" result="hardAlpha"/>
<feOffset/>
<feGaussianBlur stdDeviation="10"/>
<feColorMatrix type="matrix" values="0 0 0 0 0 0 0 0 0 0 0 0 0 0 0 0 0 0 0.1 0"/>
<feBlend mode="normal" in2="BackgroundImageFix" result="effect1_dropShadow_1245_1007"/>
<feBlend mode="normal" in="SourceGraphic" in2="effect1_dropShadow_1245_1007" result="shape"/>
</filter>
<linearGradient id="paint0_linear_1245_1007" x1="9408.48" y1="14415.1" x2="22556.3" y2="14415.1" gradientUnits="userSpaceOnUse">
<stop stop-color="#FC5C7D"/>
<stop offset="1" stop-color="#6A82FB"/>
</linearGradient>
<radialGradient id="paint1_radial_1245_1007" cx="0" cy="0" r="1" gradientUnits="userSpaceOnUse" gradientTransform="translate(9941.33 8930.03) scale(2312.31 2345.4)">
<stop/>
<stop offset="1" stop-color="white"/>
</radialGradient>
<linearGradient id="paint2_linear_1245_1007" x1="7654.8" y1="11872.1" x2="18289" y2="11872.1" gradientUnits="userSpaceOnUse">
<stop stop-color="#FC5C7D"/>
<stop offset="1" stop-color="#6A82FB"/>
</linearGradient>
<linearGradient id="paint3_linear_1245_1007" x1="1600.09" y1="2269.01" x2="3623.42" y2="2269.01" gradientUnits="userSpaceOnUse">
<stop stop-color="#FC5C7D"/>
<stop offset="1" stop-color="#6A82FB"/>
</linearGradient>
</defs>
</svg>
