<svg width="648" height="216" viewBox="0 0 648 216" fill="none" xmlns="http://www.w3.org/2000/svg">
<g filter="url(#filter0_d_1245_1008)">
<path d="M101 28.8779H545.38C567.292 28.8779 588.307 37.6794 603.801 53.3462C619.295 69.013 628 90.2618 628 112.418C628 134.574 619.295 155.823 603.801 171.49C588.307 187.156 567.292 195.958 545.38 195.958H101V28.8779Z" fill="white"/>
</g>
<path d="M204 111.775C204.025 132.077 198.064 151.93 186.871 168.822C175.679 185.715 159.757 198.887 141.121 206.674C122.486 214.461 101.973 216.511 82.1785 212.566C62.3841 208.621 44.1976 198.857 29.92 184.511C15.6423 170.164 5.91519 151.879 1.96923 131.969C-1.97674 112.059 0.0358035 91.4195 7.75221 72.6607C15.4686 53.9019 28.5421 37.8674 45.3187 26.5857C62.0952 15.304 81.8209 9.28224 102 9.28223V111.616L204 111.775Z" fill="url(#paint0_linear_1245_1008)"/>
<path d="M183.306 125.366C190.607 79.892 160.064 37.044 115.087 29.6625C70.1098 22.2811 27.7301 53.1613 20.4293 98.6354C13.1285 144.11 43.6712 186.958 88.6484 194.339C133.626 201.721 176.005 170.84 183.306 125.366Z" fill="white"/>
<path style="mix-blend-mode:multiply" d="M112.5 180.488C145.913 180.488 173 153.013 173 119.122C173 85.2303 145.913 57.7559 112.5 57.7559C79.0868 57.7559 52 85.2303 52 119.122C52 153.013 79.0868 180.488 112.5 180.488Z" fill="url(#paint1_radial_1245_1008)"/>
<path d="M164.209 0.00823014C154.846 0.940331 146.06 5.07516 139.263 11.7484C132.466 18.4217 128.052 27.2461 126.73 36.8038C126.73 36.9641 126.73 37.1564 126.73 37.3167C126.233 41.9317 123.992 46.1625 120.488 49.0994C116.983 52.0363 112.496 53.4448 107.99 53.0221C104.47 52.6685 100.924 52.6685 97.4028 53.0221C86.1428 53.8919 75.3929 58.1949 66.5327 65.3788C57.6726 72.5627 51.1063 82.2998 47.6766 93.3405C44.2469 104.381 44.1102 116.222 47.2841 127.343C50.458 138.464 56.7977 148.358 65.4895 155.755C74.1814 163.152 84.8289 167.716 96.0656 168.859C107.302 170.002 118.616 167.673 128.554 162.172C138.492 156.67 146.601 148.246 151.841 137.981C157.081 127.716 159.213 116.079 157.962 104.562C157.55 99.9378 158.923 95.3328 161.784 91.7366C164.646 88.1404 168.769 85.8401 173.266 85.3305H173.766C184.614 83.8448 194.461 78.0473 201.186 69.1858C207.912 60.3243 210.978 49.1072 209.725 37.9488C208.473 26.7904 203.001 16.5828 194.488 9.52298C185.976 2.46313 175.102 -0.884515 164.209 0.200546V0.00823014Z" fill="url(#paint2_linear_1245_1008)"/>
<path d="M168 74.2583C184.569 74.2583 198 60.8674 198 44.3489C198 27.8304 184.569 14.4395 168 14.4395C151.431 14.4395 138 27.8304 138 44.3489C138 60.8674 151.431 74.2583 168 74.2583Z" fill="white"/>
<path d="M183.596 46.4111V40.6518H179.893C179.586 39.3303 179.073 38.0667 178.374 36.9082L180.906 34.3164L176.918 30.2849L174.355 32.8446C173.209 32.1374 171.959 31.6189 170.652 31.3087V27.6611H164.955V31.3727C163.648 31.6829 162.399 32.2014 161.253 32.9086L158.689 30.3488L154.67 34.3804L157.234 36.9721C156.534 38.1307 156.021 39.3943 155.714 40.7157H152.202V46.4751H155.809C156.116 47.7966 156.629 49.0602 157.328 50.2187L154.765 52.8105L158.784 56.97L161.348 54.3783C162.494 55.0855 163.743 55.6039 165.05 55.9141V59.5938H170.747V55.7542C172.054 55.444 173.304 54.9255 174.45 54.2183L177.013 56.81L181 52.7465L178.469 50.1547C179.135 48.9903 179.616 47.7269 179.893 46.4111H183.596ZM167.772 50.2507C166.458 50.2507 165.173 49.8567 164.08 49.1183C162.987 48.38 162.135 47.3306 161.632 46.1028C161.129 44.875 160.997 43.524 161.254 42.2206C161.51 40.9172 162.143 39.7199 163.073 38.7802C164.002 37.8405 165.186 37.2005 166.475 36.9413C167.765 36.682 169.101 36.8151 170.315 37.3236C171.53 37.8322 172.568 38.6934 173.298 39.7984C174.028 40.9034 174.418 42.2025 174.418 43.5314C174.418 45.2916 173.735 46.9815 172.516 48.238C171.297 49.4945 169.639 50.2172 167.899 50.2507H167.772ZM167.772 45.9952C167.126 45.9952 166.506 45.7356 166.049 45.2736C165.592 44.8115 165.335 44.1849 165.335 43.5314C165.335 42.878 165.592 42.2514 166.049 41.7893C166.506 41.3273 167.126 41.0677 167.772 41.0677C168.418 41.0677 169.038 41.3273 169.495 41.7893C169.952 42.2514 170.209 42.878 170.209 43.5314C170.209 44.1849 169.952 44.8115 169.495 45.2736C169.038 45.7356 168.418 45.9952 167.772 45.9952V45.9952Z" fill="url(#paint3_linear_1245_1008)"/>
<path d="M242.86 85.9038C242.86 84.5438 243.167 83.3238 243.78 82.2438C244.393 81.1505 245.227 80.2971 246.28 79.6838C247.347 79.0705 248.527 78.7638 249.82 78.7638C251.34 78.7638 252.667 79.1305 253.8 79.8638C254.933 80.5971 255.76 81.6371 256.28 82.9838H254.1C253.713 82.1438 253.153 81.4971 252.42 81.0438C251.7 80.5905 250.833 80.3638 249.82 80.3638C248.847 80.3638 247.973 80.5905 247.2 81.0438C246.427 81.4971 245.82 82.1438 245.38 82.9838C244.94 83.8105 244.72 84.7838 244.72 85.9038C244.72 87.0105 244.94 87.9838 245.38 88.8238C245.82 89.6505 246.427 90.2905 247.2 90.7438C247.973 91.1971 248.847 91.4238 249.82 91.4238C250.833 91.4238 251.7 91.2038 252.42 90.7638C253.153 90.3105 253.713 89.6638 254.1 88.8238H256.28C255.76 90.1571 254.933 91.1905 253.8 91.9238C252.667 92.6438 251.34 93.0038 249.82 93.0038C248.527 93.0038 247.347 92.7038 246.28 92.1038C245.227 91.4905 244.393 90.6438 243.78 89.5638C243.167 88.4838 242.86 87.2638 242.86 85.9038ZM264.169 93.0638C263.143 93.0638 262.209 92.8305 261.369 92.3638C260.543 91.8971 259.889 91.2371 259.409 90.3838C258.943 89.5171 258.709 88.5171 258.709 87.3838C258.709 86.2638 258.949 85.2771 259.429 84.4238C259.923 83.5571 260.589 82.8971 261.429 82.4438C262.269 81.9771 263.209 81.7438 264.249 81.7438C265.289 81.7438 266.229 81.9771 267.069 82.4438C267.909 82.8971 268.569 83.5505 269.049 84.4038C269.543 85.2571 269.789 86.2505 269.789 87.3838C269.789 88.5171 269.536 89.5171 269.029 90.3838C268.536 91.2371 267.863 91.8971 267.009 92.3638C266.156 92.8305 265.209 93.0638 264.169 93.0638ZM264.169 91.4638C264.823 91.4638 265.436 91.3105 266.009 91.0038C266.583 90.6971 267.043 90.2371 267.389 89.6238C267.749 89.0105 267.929 88.2638 267.929 87.3838C267.929 86.5038 267.756 85.7571 267.409 85.1438C267.063 84.5305 266.609 84.0771 266.049 83.7838C265.489 83.4771 264.883 83.3238 264.229 83.3238C263.563 83.3238 262.949 83.4771 262.389 83.7838C261.843 84.0771 261.403 84.5305 261.069 85.1438C260.736 85.7571 260.569 86.5038 260.569 87.3838C260.569 88.2771 260.729 89.0305 261.049 89.6438C261.383 90.2571 261.823 90.7171 262.369 91.0238C262.916 91.3171 263.516 91.4638 264.169 91.4638ZM274.402 78.0838V92.8838H272.582V78.0838H274.402ZM279.724 78.0838V92.8838H277.904V78.0838H279.724ZM282.546 87.3638C282.546 86.2438 282.773 85.2638 283.226 84.4238C283.679 83.5705 284.299 82.9105 285.086 82.4438C285.886 81.9771 286.773 81.7438 287.746 81.7438C288.706 81.7438 289.539 81.9505 290.246 82.3638C290.953 82.7771 291.479 83.2971 291.826 83.9238V81.9238H293.666V92.8838H291.826V90.8438C291.466 91.4838 290.926 92.0171 290.206 92.4438C289.499 92.8571 288.673 93.0638 287.726 93.0638C286.753 93.0638 285.873 92.8238 285.086 92.3438C284.299 91.8638 283.679 91.1905 283.226 90.3238C282.773 89.4571 282.546 88.4705 282.546 87.3638ZM291.826 87.3838C291.826 86.5571 291.659 85.8371 291.326 85.2238C290.993 84.6105 290.539 84.1438 289.966 83.8238C289.406 83.4905 288.786 83.3238 288.106 83.3238C287.426 83.3238 286.806 83.4838 286.246 83.8038C285.686 84.1238 285.239 84.5905 284.906 85.2038C284.573 85.8171 284.406 86.5371 284.406 87.3638C284.406 88.2038 284.573 88.9371 284.906 89.5638C285.239 90.1771 285.686 90.6505 286.246 90.9838C286.806 91.3038 287.426 91.4638 288.106 91.4638C288.786 91.4638 289.406 91.3038 289.966 90.9838C290.539 90.6505 290.993 90.1771 291.326 89.5638C291.659 88.9371 291.826 88.2105 291.826 87.3838ZM298.962 83.9638C299.335 83.3105 299.882 82.7771 300.602 82.3638C301.322 81.9505 302.142 81.7438 303.062 81.7438C304.048 81.7438 304.935 81.9771 305.722 82.4438C306.508 82.9105 307.128 83.5705 307.582 84.4238C308.035 85.2638 308.262 86.2438 308.262 87.3638C308.262 88.4705 308.035 89.4571 307.582 90.3238C307.128 91.1905 306.502 91.8638 305.702 92.3438C304.915 92.8238 304.035 93.0638 303.062 93.0638C302.115 93.0638 301.282 92.8571 300.562 92.4438C299.855 92.0305 299.322 91.5038 298.962 90.8638V92.8838H297.142V78.0838H298.962V83.9638ZM306.402 87.3638C306.402 86.5371 306.235 85.8171 305.902 85.2038C305.568 84.5905 305.115 84.1238 304.542 83.8038C303.982 83.4838 303.362 83.3238 302.682 83.3238C302.015 83.3238 301.395 83.4905 300.822 83.8238C300.262 84.1438 299.808 84.6171 299.462 85.2438C299.128 85.8571 298.962 86.5705 298.962 87.3838C298.962 88.2105 299.128 88.9371 299.462 89.5638C299.808 90.1771 300.262 90.6505 300.822 90.9838C301.395 91.3038 302.015 91.4638 302.682 91.4638C303.362 91.4638 303.982 91.3038 304.542 90.9838C305.115 90.6505 305.568 90.1771 305.902 89.5638C306.235 88.9371 306.402 88.2038 306.402 87.3638ZM315.837 93.0638C314.811 93.0638 313.877 92.8305 313.037 92.3638C312.211 91.8971 311.557 91.2371 311.077 90.3838C310.611 89.5171 310.377 88.5171 310.377 87.3838C310.377 86.2638 310.617 85.2771 311.097 84.4238C311.591 83.5571 312.257 82.8971 313.097 82.4438C313.937 81.9771 314.877 81.7438 315.917 81.7438C316.957 81.7438 317.897 81.9771 318.737 82.4438C319.577 82.8971 320.237 83.5505 320.717 84.4038C321.211 85.2571 321.457 86.2505 321.457 87.3838C321.457 88.5171 321.204 89.5171 320.697 90.3838C320.204 91.2371 319.531 91.8971 318.677 92.3638C317.824 92.8305 316.877 93.0638 315.837 93.0638ZM315.837 91.4638C316.491 91.4638 317.104 91.3105 317.677 91.0038C318.251 90.6971 318.711 90.2371 319.057 89.6238C319.417 89.0105 319.597 88.2638 319.597 87.3838C319.597 86.5038 319.424 85.7571 319.077 85.1438C318.731 84.5305 318.277 84.0771 317.717 83.7838C317.157 83.4771 316.551 83.3238 315.897 83.3238C315.231 83.3238 314.617 83.4771 314.057 83.7838C313.511 84.0771 313.071 84.5305 312.737 85.1438C312.404 85.7571 312.237 86.5038 312.237 87.3838C312.237 88.2771 312.397 89.0305 312.717 89.6438C313.051 90.2571 313.491 90.7171 314.037 91.0238C314.584 91.3171 315.184 91.4638 315.837 91.4638ZM326.07 83.7038C326.39 83.0771 326.843 82.5905 327.43 82.2438C328.03 81.8971 328.757 81.7238 329.61 81.7238V83.6038H329.13C327.09 83.6038 326.07 84.7105 326.07 86.9238V92.8838H324.25V81.9238H326.07V83.7038ZM331.431 87.3638C331.431 86.2438 331.658 85.2638 332.111 84.4238C332.564 83.5705 333.184 82.9105 333.971 82.4438C334.771 81.9771 335.658 81.7438 336.631 81.7438C337.591 81.7438 338.424 81.9505 339.131 82.3638C339.838 82.7771 340.364 83.2971 340.711 83.9238V81.9238H342.551V92.8838H340.711V90.8438C340.351 91.4838 339.811 92.0171 339.091 92.4438C338.384 92.8571 337.558 93.0638 336.611 93.0638C335.638 93.0638 334.758 92.8238 333.971 92.3438C333.184 91.8638 332.564 91.1905 332.111 90.3238C331.658 89.4571 331.431 88.4705 331.431 87.3638ZM340.711 87.3838C340.711 86.5571 340.544 85.8371 340.211 85.2238C339.878 84.6105 339.424 84.1438 338.851 83.8238C338.291 83.4905 337.671 83.3238 336.991 83.3238C336.311 83.3238 335.691 83.4838 335.131 83.8038C334.571 84.1238 334.124 84.5905 333.791 85.2038C333.458 85.8171 333.291 86.5371 333.291 87.3638C333.291 88.2038 333.458 88.9371 333.791 89.5638C334.124 90.1771 334.571 90.6505 335.131 90.9838C335.691 91.3038 336.311 91.4638 336.991 91.4638C337.671 91.4638 338.291 91.3038 338.851 90.9838C339.424 90.6505 339.878 90.1771 340.211 89.5638C340.544 88.9371 340.711 88.2105 340.711 87.3838ZM348.247 83.4238V89.8838C348.247 90.4171 348.36 90.7971 348.587 91.0238C348.813 91.2371 349.207 91.3438 349.767 91.3438H351.107V92.8838H349.467C348.453 92.8838 347.693 92.6505 347.187 92.1838C346.68 91.7171 346.427 90.9505 346.427 89.8838V83.4238H345.007V81.9238H346.427V79.1638H348.247V81.9238H351.107V83.4238H348.247ZM354.652 80.1438C354.305 80.1438 354.012 80.0238 353.772 79.7838C353.532 79.5438 353.412 79.2505 353.412 78.9038C353.412 78.5571 353.532 78.2638 353.772 78.0238C354.012 77.7838 354.305 77.6638 354.652 77.6638C354.985 77.6638 355.265 77.7838 355.492 78.0238C355.732 78.2638 355.852 78.5571 355.852 78.9038C355.852 79.2505 355.732 79.5438 355.492 79.7838C355.265 80.0238 354.985 80.1438 354.652 80.1438ZM355.532 81.9238V92.8838H353.712V81.9238H355.532ZM363.814 93.0638C362.787 93.0638 361.854 92.8305 361.014 92.3638C360.187 91.8971 359.534 91.2371 359.054 90.3838C358.587 89.5171 358.354 88.5171 358.354 87.3838C358.354 86.2638 358.594 85.2771 359.074 84.4238C359.567 83.5571 360.234 82.8971 361.074 82.4438C361.914 81.9771 362.854 81.7438 363.894 81.7438C364.934 81.7438 365.874 81.9771 366.714 82.4438C367.554 82.8971 368.214 83.5505 368.694 84.4038C369.187 85.2571 369.434 86.2505 369.434 87.3838C369.434 88.5171 369.18 89.5171 368.674 90.3838C368.18 91.2371 367.507 91.8971 366.654 92.3638C365.8 92.8305 364.854 93.0638 363.814 93.0638ZM363.814 91.4638C364.467 91.4638 365.08 91.3105 365.654 91.0038C366.227 90.6971 366.687 90.2371 367.034 89.6238C367.394 89.0105 367.574 88.2638 367.574 87.3838C367.574 86.5038 367.4 85.7571 367.054 85.1438C366.707 84.5305 366.254 84.0771 365.694 83.7838C365.134 83.4771 364.527 83.3238 363.874 83.3238C363.207 83.3238 362.594 83.4771 362.034 83.7838C361.487 84.0771 361.047 84.5305 360.714 85.1438C360.38 85.7571 360.214 86.5038 360.214 87.3838C360.214 88.2771 360.374 89.0305 360.694 89.6438C361.027 90.2571 361.467 90.7171 362.014 91.0238C362.56 91.3171 363.16 91.4638 363.814 91.4638ZM377.567 81.7238C378.9 81.7238 379.98 82.1305 380.807 82.9438C381.633 83.7438 382.047 84.9038 382.047 86.4238V92.8838H380.247V86.6838C380.247 85.5905 379.973 84.7571 379.427 84.1838C378.88 83.5971 378.133 83.3038 377.187 83.3038C376.227 83.3038 375.46 83.6038 374.887 84.2038C374.327 84.8038 374.047 85.6771 374.047 86.8238V92.8838H372.227V81.9238H374.047V83.4838C374.407 82.9238 374.893 82.4905 375.507 82.1838C376.133 81.8771 376.82 81.7238 377.567 81.7238ZM390.472 87.3638C390.472 86.2438 390.698 85.2638 391.152 84.4238C391.605 83.5705 392.225 82.9105 393.012 82.4438C393.812 81.9771 394.698 81.7438 395.672 81.7438C396.632 81.7438 397.465 81.9505 398.172 82.3638C398.878 82.7771 399.405 83.2971 399.752 83.9238V81.9238H401.592V92.8838H399.752V90.8438C399.392 91.4838 398.852 92.0171 398.132 92.4438C397.425 92.8571 396.598 93.0638 395.652 93.0638C394.678 93.0638 393.798 92.8238 393.012 92.3438C392.225 91.8638 391.605 91.1905 391.152 90.3238C390.698 89.4571 390.472 88.4705 390.472 87.3638ZM399.752 87.3838C399.752 86.5571 399.585 85.8371 399.252 85.2238C398.918 84.6105 398.465 84.1438 397.892 83.8238C397.332 83.4905 396.712 83.3238 396.032 83.3238C395.352 83.3238 394.732 83.4838 394.172 83.8038C393.612 84.1238 393.165 84.5905 392.832 85.2038C392.498 85.8171 392.332 86.5371 392.332 87.3638C392.332 88.2038 392.498 88.9371 392.832 89.5638C393.165 90.1771 393.612 90.6505 394.172 90.9838C394.732 91.3038 395.352 91.4638 396.032 91.4638C396.712 91.4638 397.332 91.3038 397.892 90.9838C398.465 90.6505 398.918 90.1771 399.252 89.5638C399.585 88.9371 399.752 88.2105 399.752 87.3838ZM410.407 81.7238C411.741 81.7238 412.821 82.1305 413.647 82.9438C414.474 83.7438 414.887 84.9038 414.887 86.4238V92.8838H413.087V86.6838C413.087 85.5905 412.814 84.7571 412.267 84.1838C411.721 83.5971 410.974 83.3038 410.027 83.3038C409.067 83.3038 408.301 83.6038 407.727 84.2038C407.167 84.8038 406.887 85.6771 406.887 86.8238V92.8838H405.067V81.9238H406.887V83.4838C407.247 82.9238 407.734 82.4905 408.347 82.1838C408.974 81.8771 409.661 81.7238 410.407 81.7238ZM417.58 87.3638C417.58 86.2438 417.807 85.2638 418.26 84.4238C418.714 83.5705 419.334 82.9105 420.12 82.4438C420.92 81.9771 421.814 81.7438 422.8 81.7438C423.654 81.7438 424.447 81.9438 425.18 82.3438C425.914 82.7305 426.474 83.2438 426.86 83.8838V78.0838H428.7V92.8838H426.86V90.8238C426.5 91.4771 425.967 92.0171 425.26 92.4438C424.554 92.8571 423.727 93.0638 422.78 93.0638C421.807 93.0638 420.92 92.8238 420.12 92.3438C419.334 91.8638 418.714 91.1905 418.26 90.3238C417.807 89.4571 417.58 88.4705 417.58 87.3638ZM426.86 87.3838C426.86 86.5571 426.694 85.8371 426.36 85.2238C426.027 84.6105 425.574 84.1438 425 83.8238C424.44 83.4905 423.82 83.3238 423.14 83.3238C422.46 83.3238 421.84 83.4838 421.28 83.8038C420.72 84.1238 420.274 84.5905 419.94 85.2038C419.607 85.8171 419.44 86.5371 419.44 87.3638C419.44 88.2038 419.607 88.9371 419.94 89.5638C420.274 90.1771 420.72 90.6505 421.28 90.9838C421.84 91.3038 422.46 91.4638 423.14 91.4638C423.82 91.4638 424.44 91.3038 425 90.9838C425.574 90.6505 426.027 90.1771 426.36 89.5638C426.694 88.9371 426.86 88.2105 426.86 87.3838ZM439.728 83.9438C440.088 83.3171 440.621 82.7971 441.328 82.3838C442.048 81.9571 442.881 81.7438 443.828 81.7438C444.801 81.7438 445.681 81.9771 446.468 82.4438C447.268 82.9105 447.895 83.5705 448.348 84.4238C448.801 85.2638 449.028 86.2438 449.028 87.3638C449.028 88.4705 448.801 89.4571 448.348 90.3238C447.895 91.1905 447.268 91.8638 446.468 92.3438C445.681 92.8238 444.801 93.0638 443.828 93.0638C442.895 93.0638 442.068 92.8571 441.348 92.4438C440.641 92.0171 440.101 91.4905 439.728 90.8638V98.0838H437.908V81.9238H439.728V83.9438ZM447.168 87.3638C447.168 86.5371 447.001 85.8171 446.668 85.2038C446.335 84.5905 445.881 84.1238 445.308 83.8038C444.748 83.4838 444.128 83.3238 443.448 83.3238C442.781 83.3238 442.161 83.4905 441.588 83.8238C441.028 84.1438 440.575 84.6171 440.228 85.2438C439.895 85.8571 439.728 86.5705 439.728 87.3838C439.728 88.2105 439.895 88.9371 440.228 89.5638C440.575 90.1771 441.028 90.6505 441.588 90.9838C442.161 91.3038 442.781 91.4638 443.448 91.4638C444.128 91.4638 444.748 91.3038 445.308 90.9838C445.881 90.6505 446.335 90.1771 446.668 89.5638C447.001 88.9371 447.168 88.2038 447.168 87.3638ZM451.144 87.3638C451.144 86.2438 451.37 85.2638 451.824 84.4238C452.277 83.5705 452.897 82.9105 453.684 82.4438C454.484 81.9771 455.37 81.7438 456.344 81.7438C457.304 81.7438 458.137 81.9505 458.844 82.3638C459.55 82.7771 460.077 83.2971 460.424 83.9238V81.9238H462.264V92.8838H460.424V90.8438C460.064 91.4838 459.524 92.0171 458.804 92.4438C458.097 92.8571 457.27 93.0638 456.324 93.0638C455.35 93.0638 454.47 92.8238 453.684 92.3438C452.897 91.8638 452.277 91.1905 451.824 90.3238C451.37 89.4571 451.144 88.4705 451.144 87.3638ZM460.424 87.3838C460.424 86.5571 460.257 85.8371 459.924 85.2238C459.59 84.6105 459.137 84.1438 458.564 83.8238C458.004 83.4905 457.384 83.3238 456.704 83.3238C456.024 83.3238 455.404 83.4838 454.844 83.8038C454.284 84.1238 453.837 84.5905 453.504 85.2038C453.17 85.8171 453.004 86.5371 453.004 87.3638C453.004 88.2038 453.17 88.9371 453.504 89.5638C453.837 90.1771 454.284 90.6505 454.844 90.9838C455.404 91.3038 456.024 91.4638 456.704 91.4638C457.384 91.4638 458.004 91.3038 458.564 90.9838C459.137 90.6505 459.59 90.1771 459.924 89.5638C460.257 88.9371 460.424 88.2105 460.424 87.3838ZM467.559 83.7038C467.879 83.0771 468.333 82.5905 468.919 82.2438C469.519 81.8971 470.246 81.7238 471.099 81.7238V83.6038H470.619C468.579 83.6038 467.559 84.7105 467.559 86.9238V92.8838H465.739V81.9238H467.559V83.7038ZM475.82 83.4238V89.8838C475.82 90.4171 475.933 90.7971 476.16 91.0238C476.387 91.2371 476.78 91.3438 477.34 91.3438H478.68V92.8838H477.04C476.027 92.8838 475.267 92.6505 474.76 92.1838C474.253 91.7171 474 90.9505 474 89.8838V83.4238H472.58V81.9238H474V79.1638H475.82V81.9238H478.68V83.4238H475.82ZM491.285 86.9838C491.285 87.3305 491.265 87.6971 491.225 88.0838H482.465C482.532 89.1638 482.899 90.0105 483.565 90.6238C484.245 91.2238 485.065 91.5238 486.025 91.5238C486.812 91.5238 487.465 91.3438 487.985 90.9838C488.519 90.6105 488.892 90.1171 489.105 89.5038H491.065C490.772 90.5571 490.185 91.4171 489.305 92.0838C488.425 92.7371 487.332 93.0638 486.025 93.0638C484.985 93.0638 484.052 92.8305 483.225 92.3638C482.412 91.8971 481.772 91.2371 481.305 90.3838C480.839 89.5171 480.605 88.5171 480.605 87.3838C480.605 86.2505 480.832 85.2571 481.285 84.4038C481.739 83.5505 482.372 82.8971 483.185 82.4438C484.012 81.9771 484.959 81.7438 486.025 81.7438C487.065 81.7438 487.985 81.9705 488.785 82.4238C489.585 82.8771 490.199 83.5038 490.625 84.3038C491.065 85.0905 491.285 85.9838 491.285 86.9838ZM489.405 86.6038C489.405 85.9105 489.252 85.3171 488.945 84.8238C488.639 84.3171 488.219 83.9371 487.685 83.6838C487.165 83.4171 486.585 83.2838 485.945 83.2838C485.025 83.2838 484.239 83.5771 483.585 84.1638C482.945 84.7505 482.579 85.5638 482.485 86.6038H489.405ZM495.908 83.7038C496.228 83.0771 496.681 82.5905 497.268 82.2438C497.868 81.8971 498.594 81.7238 499.448 81.7238V83.6038H498.968C496.928 83.6038 495.908 84.7105 495.908 86.9238V92.8838H494.088V81.9238H495.908V83.7038ZM505.829 93.0638C504.989 93.0638 504.235 92.9238 503.569 92.6438C502.902 92.3505 502.375 91.9505 501.989 91.4438C501.602 90.9238 501.389 90.3305 501.349 89.6638H503.229C503.282 90.2105 503.535 90.6571 503.989 91.0038C504.455 91.3505 505.062 91.5238 505.809 91.5238C506.502 91.5238 507.049 91.3705 507.449 91.0638C507.849 90.7571 508.049 90.3705 508.049 89.9038C508.049 89.4238 507.835 89.0705 507.409 88.8438C506.982 88.6038 506.322 88.3705 505.429 88.1438C504.615 87.9305 503.949 87.7171 503.429 87.5038C502.922 87.2771 502.482 86.9505 502.109 86.5238C501.749 86.0838 501.569 85.5105 501.569 84.8038C501.569 84.2438 501.735 83.7305 502.069 83.2638C502.402 82.7971 502.875 82.4305 503.489 82.1638C504.102 81.8838 504.802 81.7438 505.589 81.7438C506.802 81.7438 507.782 82.0505 508.529 82.6638C509.275 83.2771 509.675 84.1171 509.729 85.1838H507.909C507.869 84.6105 507.635 84.1505 507.209 83.8038C506.795 83.4571 506.235 83.2838 505.529 83.2838C504.875 83.2838 504.355 83.4238 503.969 83.7038C503.582 83.9838 503.389 84.3505 503.389 84.8038C503.389 85.1638 503.502 85.4638 503.729 85.7038C503.969 85.9305 504.262 86.1171 504.609 86.2638C504.969 86.3971 505.462 86.5505 506.089 86.7238C506.875 86.9371 507.515 87.1505 508.009 87.3638C508.502 87.5638 508.922 87.8705 509.269 88.2838C509.629 88.6971 509.815 89.2371 509.829 89.9038C509.829 90.5038 509.662 91.0438 509.329 91.5238C508.995 92.0038 508.522 92.3838 507.909 92.6638C507.309 92.9305 506.615 93.0638 505.829 93.0638ZM518.238 81.7238C519.064 81.7238 519.811 81.9038 520.478 82.2638C521.144 82.6105 521.664 83.1371 522.038 83.8438C522.424 84.5505 522.618 85.4105 522.618 86.4238V92.8838H520.818V86.6838C520.818 85.5905 520.544 84.7571 519.998 84.1838C519.451 83.5971 518.704 83.3038 517.758 83.3038C516.798 83.3038 516.031 83.6038 515.458 84.2038C514.898 84.8038 514.618 85.6771 514.618 86.8238V92.8838H512.798V78.0838H514.618V83.4838C514.978 82.9238 515.471 82.4905 516.098 82.1838C516.738 81.8771 517.451 81.7238 518.238 81.7238ZM526.931 80.1438C526.584 80.1438 526.291 80.0238 526.051 79.7838C525.811 79.5438 525.691 79.2505 525.691 78.9038C525.691 78.5571 525.811 78.2638 526.051 78.0238C526.291 77.7838 526.584 77.6638 526.931 77.6638C527.264 77.6638 527.544 77.7838 527.771 78.0238C528.011 78.2638 528.131 78.5571 528.131 78.9038C528.131 79.2505 528.011 79.5438 527.771 79.7838C527.544 80.0238 527.264 80.1438 526.931 80.1438ZM527.811 81.9238V92.8838H525.991V81.9238H527.811ZM533.133 83.9438C533.493 83.3171 534.026 82.7971 534.733 82.3838C535.453 81.9571 536.286 81.7438 537.233 81.7438C538.206 81.7438 539.086 81.9771 539.873 82.4438C540.673 82.9105 541.299 83.5705 541.753 84.4238C542.206 85.2638 542.433 86.2438 542.433 87.3638C542.433 88.4705 542.206 89.4571 541.753 90.3238C541.299 91.1905 540.673 91.8638 539.873 92.3438C539.086 92.8238 538.206 93.0638 537.233 93.0638C536.299 93.0638 535.473 92.8571 534.753 92.4438C534.046 92.0171 533.506 91.4905 533.133 90.8638V98.0838H531.313V81.9238H533.133V83.9438ZM540.573 87.3638C540.573 86.5371 540.406 85.8171 540.073 85.2038C539.739 84.5905 539.286 84.1238 538.713 83.8038C538.153 83.4838 537.533 83.3238 536.853 83.3238C536.186 83.3238 535.566 83.4905 534.993 83.8238C534.433 84.1438 533.979 84.6171 533.633 85.2438C533.299 85.8571 533.133 86.5705 533.133 87.3838C533.133 88.2105 533.299 88.9371 533.633 89.5638C533.979 90.1771 534.433 90.6505 534.993 90.9838C535.566 91.3038 536.186 91.4638 536.853 91.4638C537.533 91.4638 538.153 91.3038 538.713 90.9838C539.286 90.6505 539.739 90.1771 540.073 89.5638C540.406 88.9371 540.573 88.2038 540.573 87.3638ZM258.14 112.924L254.72 123.884H252.84L250.2 115.184L247.56 123.884H245.68L242.24 112.924H244.1L246.62 122.124L249.34 112.924H251.2L253.86 122.144L256.34 112.924H258.14ZM261.286 111.144C260.94 111.144 260.646 111.024 260.406 110.784C260.166 110.544 260.046 110.25 260.046 109.904C260.046 109.557 260.166 109.264 260.406 109.024C260.646 108.784 260.94 108.664 261.286 108.664C261.62 108.664 261.9 108.784 262.126 109.024C262.366 109.264 262.486 109.557 262.486 109.904C262.486 110.25 262.366 110.544 262.126 110.784C261.9 111.024 261.62 111.144 261.286 111.144ZM262.166 112.924V123.884H260.346V112.924H262.166ZM267.888 114.424V120.884C267.888 121.417 268.001 121.797 268.228 122.024C268.455 122.237 268.848 122.344 269.408 122.344H270.748V123.884H269.108C268.095 123.884 267.335 123.65 266.828 123.184C266.321 122.717 266.068 121.95 266.068 120.884V114.424H264.648V112.924H266.068V110.164H267.888V112.924H270.748V114.424H267.888ZM278.793 112.724C279.62 112.724 280.367 112.904 281.033 113.264C281.7 113.61 282.22 114.137 282.593 114.844C282.98 115.55 283.173 116.41 283.173 117.424V123.884H281.373V117.684C281.373 116.59 281.1 115.757 280.553 115.184C280.007 114.597 279.26 114.304 278.313 114.304C277.353 114.304 276.587 114.604 276.013 115.204C275.453 115.804 275.173 116.677 275.173 117.824V123.884H273.353V109.084H275.173V114.484C275.533 113.924 276.027 113.49 276.653 113.184C277.293 112.877 278.007 112.724 278.793 112.724ZM294.098 114.944C294.458 114.317 294.992 113.797 295.698 113.384C296.418 112.957 297.252 112.744 298.198 112.744C299.172 112.744 300.052 112.977 300.838 113.444C301.638 113.91 302.265 114.57 302.718 115.424C303.172 116.264 303.398 117.244 303.398 118.364C303.398 119.47 303.172 120.457 302.718 121.324C302.265 122.19 301.638 122.864 300.838 123.344C300.052 123.824 299.172 124.064 298.198 124.064C297.265 124.064 296.438 123.857 295.718 123.444C295.012 123.017 294.472 122.49 294.098 121.864V129.084H292.278V112.924H294.098V114.944ZM301.538 118.364C301.538 117.537 301.372 116.817 301.038 116.204C300.705 115.59 300.252 115.124 299.678 114.804C299.118 114.484 298.498 114.324 297.818 114.324C297.152 114.324 296.532 114.49 295.958 114.824C295.398 115.144 294.945 115.617 294.598 116.244C294.265 116.857 294.098 117.57 294.098 118.384C294.098 119.21 294.265 119.937 294.598 120.564C294.945 121.177 295.398 121.65 295.958 121.984C296.532 122.304 297.152 122.464 297.818 122.464C298.498 122.464 299.118 122.304 299.678 121.984C300.252 121.65 300.705 121.177 301.038 120.564C301.372 119.937 301.538 119.204 301.538 118.364ZM310.974 124.064C309.947 124.064 309.014 123.83 308.174 123.364C307.347 122.897 306.694 122.237 306.214 121.384C305.747 120.517 305.514 119.517 305.514 118.384C305.514 117.264 305.754 116.277 306.234 115.424C306.727 114.557 307.394 113.897 308.234 113.444C309.074 112.977 310.014 112.744 311.054 112.744C312.094 112.744 313.034 112.977 313.874 113.444C314.714 113.897 315.374 114.55 315.854 115.404C316.347 116.257 316.594 117.25 316.594 118.384C316.594 119.517 316.341 120.517 315.834 121.384C315.341 122.237 314.667 122.897 313.814 123.364C312.961 123.83 312.014 124.064 310.974 124.064ZM310.974 122.464C311.627 122.464 312.241 122.31 312.814 122.004C313.387 121.697 313.847 121.237 314.194 120.624C314.554 120.01 314.734 119.264 314.734 118.384C314.734 117.504 314.561 116.757 314.214 116.144C313.867 115.53 313.414 115.077 312.854 114.784C312.294 114.477 311.687 114.324 311.034 114.324C310.367 114.324 309.754 114.477 309.194 114.784C308.647 115.077 308.207 115.53 307.874 116.144C307.541 116.757 307.374 117.504 307.374 118.384C307.374 119.277 307.534 120.03 307.854 120.644C308.187 121.257 308.627 121.717 309.174 122.024C309.721 122.317 310.321 122.464 310.974 122.464ZM321.607 114.424V120.884C321.607 121.417 321.72 121.797 321.947 122.024C322.174 122.237 322.567 122.344 323.127 122.344H324.467V123.884H322.827C321.814 123.884 321.054 123.65 320.547 123.184C320.04 122.717 319.787 121.95 319.787 120.884V114.424H318.367V112.924H319.787V110.164H321.607V112.924H324.467V114.424H321.607ZM332.512 112.724C333.339 112.724 334.085 112.904 334.752 113.264C335.419 113.61 335.939 114.137 336.312 114.844C336.699 115.55 336.892 116.41 336.892 117.424V123.884H335.092V117.684C335.092 116.59 334.819 115.757 334.272 115.184C333.725 114.597 332.979 114.304 332.032 114.304C331.072 114.304 330.305 114.604 329.732 115.204C329.172 115.804 328.892 116.677 328.892 117.824V123.884H327.072V109.084H328.892V114.484C329.252 113.924 329.745 113.49 330.372 113.184C331.012 112.877 331.725 112.724 332.512 112.724ZM350.265 117.984C350.265 118.33 350.245 118.697 350.205 119.084H341.445C341.512 120.164 341.878 121.01 342.545 121.624C343.225 122.224 344.045 122.524 345.005 122.524C345.792 122.524 346.445 122.344 346.965 121.984C347.498 121.61 347.872 121.117 348.085 120.504H350.045C349.752 121.557 349.165 122.417 348.285 123.084C347.405 123.737 346.312 124.064 345.005 124.064C343.965 124.064 343.032 123.83 342.205 123.364C341.392 122.897 340.752 122.237 340.285 121.384C339.818 120.517 339.585 119.517 339.585 118.384C339.585 117.25 339.812 116.257 340.265 115.404C340.718 114.55 341.352 113.897 342.165 113.444C342.992 112.977 343.938 112.744 345.005 112.744C346.045 112.744 346.965 112.97 347.765 113.424C348.565 113.877 349.178 114.504 349.605 115.304C350.045 116.09 350.265 116.984 350.265 117.984ZM348.385 117.604C348.385 116.91 348.232 116.317 347.925 115.824C347.618 115.317 347.198 114.937 346.665 114.684C346.145 114.417 345.565 114.284 344.925 114.284C344.005 114.284 343.218 114.577 342.565 115.164C341.925 115.75 341.558 116.564 341.465 117.604H348.385ZM354.887 114.704C355.207 114.077 355.661 113.59 356.247 113.244C356.847 112.897 357.574 112.724 358.427 112.724V114.604H357.947C355.907 114.604 354.887 115.71 354.887 117.924V123.884H353.067V112.924H354.887V114.704ZM370.54 124.064C369.7 124.064 368.947 123.924 368.28 123.644C367.614 123.35 367.087 122.95 366.7 122.444C366.314 121.924 366.1 121.33 366.06 120.664H367.94C367.994 121.21 368.247 121.657 368.7 122.004C369.167 122.35 369.774 122.524 370.52 122.524C371.214 122.524 371.76 122.37 372.16 122.064C372.56 121.757 372.76 121.37 372.76 120.904C372.76 120.424 372.547 120.07 372.12 119.844C371.694 119.604 371.034 119.37 370.14 119.144C369.327 118.93 368.66 118.717 368.14 118.504C367.634 118.277 367.194 117.95 366.82 117.524C366.46 117.084 366.28 116.51 366.28 115.804C366.28 115.244 366.447 114.73 366.78 114.264C367.114 113.797 367.587 113.43 368.2 113.164C368.814 112.884 369.514 112.744 370.3 112.744C371.514 112.744 372.494 113.05 373.24 113.664C373.987 114.277 374.387 115.117 374.44 116.184H372.62C372.58 115.61 372.347 115.15 371.92 114.804C371.507 114.457 370.947 114.284 370.24 114.284C369.587 114.284 369.067 114.424 368.68 114.704C368.294 114.984 368.1 115.35 368.1 115.804C368.1 116.164 368.214 116.464 368.44 116.704C368.68 116.93 368.974 117.117 369.32 117.264C369.68 117.397 370.174 117.55 370.8 117.724C371.587 117.937 372.227 118.15 372.72 118.364C373.214 118.564 373.634 118.87 373.98 119.284C374.34 119.697 374.527 120.237 374.54 120.904C374.54 121.504 374.374 122.044 374.04 122.524C373.707 123.004 373.234 123.384 372.62 123.664C372.02 123.93 371.327 124.064 370.54 124.064ZM379.73 114.424V120.884C379.73 121.417 379.843 121.797 380.07 122.024C380.296 122.237 380.69 122.344 381.25 122.344H382.59V123.884H380.95C379.936 123.884 379.176 123.65 378.67 123.184C378.163 122.717 377.91 121.95 377.91 120.884V114.424H376.49V112.924H377.91V110.164H379.73V112.924H382.59V114.424H379.73ZM384.515 118.364C384.515 117.244 384.741 116.264 385.195 115.424C385.648 114.57 386.268 113.91 387.055 113.444C387.855 112.977 388.741 112.744 389.715 112.744C390.675 112.744 391.508 112.95 392.215 113.364C392.921 113.777 393.448 114.297 393.795 114.924V112.924H395.635V123.884H393.795V121.844C393.435 122.484 392.895 123.017 392.175 123.444C391.468 123.857 390.641 124.064 389.695 124.064C388.721 124.064 387.841 123.824 387.055 123.344C386.268 122.864 385.648 122.19 385.195 121.324C384.741 120.457 384.515 119.47 384.515 118.364ZM393.795 118.384C393.795 117.557 393.628 116.837 393.295 116.224C392.961 115.61 392.508 115.144 391.935 114.824C391.375 114.49 390.755 114.324 390.075 114.324C389.395 114.324 388.775 114.484 388.215 114.804C387.655 115.124 387.208 115.59 386.875 116.204C386.541 116.817 386.375 117.537 386.375 118.364C386.375 119.204 386.541 119.937 386.875 120.564C387.208 121.177 387.655 121.65 388.215 121.984C388.775 122.304 389.395 122.464 390.075 122.464C390.755 122.464 391.375 122.304 391.935 121.984C392.508 121.65 392.961 121.177 393.295 120.564C393.628 119.937 393.795 119.21 393.795 118.384ZM400.93 114.704C401.25 114.077 401.704 113.59 402.29 113.244C402.89 112.897 403.617 112.724 404.47 112.724V114.604H403.99C401.95 114.604 400.93 115.71 400.93 117.924V123.884H399.11V112.924H400.93V114.704ZM409.191 114.424V120.884C409.191 121.417 409.305 121.797 409.531 122.024C409.758 122.237 410.151 122.344 410.711 122.344H412.051V123.884H410.411C409.398 123.884 408.638 123.65 408.131 123.184C407.625 122.717 407.371 121.95 407.371 120.884V114.424H405.951V112.924H407.371V110.164H409.191V112.924H412.051V114.424H409.191ZM424.376 112.924V123.884H422.556V122.264C422.21 122.824 421.723 123.264 421.096 123.584C420.483 123.89 419.803 124.044 419.056 124.044C418.203 124.044 417.436 123.87 416.756 123.524C416.076 123.164 415.536 122.63 415.136 121.924C414.75 121.217 414.556 120.357 414.556 119.344V112.924H416.356V119.104C416.356 120.184 416.63 121.017 417.176 121.604C417.723 122.177 418.47 122.464 419.416 122.464C420.39 122.464 421.156 122.164 421.716 121.564C422.276 120.964 422.556 120.09 422.556 118.944V112.924H424.376ZM429.669 114.944C430.029 114.317 430.563 113.797 431.269 113.384C431.989 112.957 432.823 112.744 433.769 112.744C434.743 112.744 435.623 112.977 436.409 113.444C437.209 113.91 437.836 114.57 438.289 115.424C438.743 116.264 438.969 117.244 438.969 118.364C438.969 119.47 438.743 120.457 438.289 121.324C437.836 122.19 437.209 122.864 436.409 123.344C435.623 123.824 434.743 124.064 433.769 124.064C432.836 124.064 432.009 123.857 431.289 123.444C430.583 123.017 430.043 122.49 429.669 121.864V129.084H427.849V112.924H429.669V114.944ZM437.109 118.364C437.109 117.537 436.943 116.817 436.609 116.204C436.276 115.59 435.823 115.124 435.249 114.804C434.689 114.484 434.069 114.324 433.389 114.324C432.723 114.324 432.103 114.49 431.529 114.824C430.969 115.144 430.516 115.617 430.169 116.244C429.836 116.857 429.669 117.57 429.669 118.384C429.669 119.21 429.836 119.937 430.169 120.564C430.516 121.177 430.969 121.65 431.529 121.984C432.103 122.304 432.723 122.464 433.389 122.464C434.069 122.464 434.689 122.304 435.249 121.984C435.823 121.65 436.276 121.177 436.609 120.564C436.943 119.937 437.109 119.204 437.109 118.364ZM445.645 124.064C444.805 124.064 444.052 123.924 443.385 123.644C442.718 123.35 442.192 122.95 441.805 122.444C441.418 121.924 441.205 121.33 441.165 120.664H443.045C443.098 121.21 443.352 121.657 443.805 122.004C444.272 122.35 444.878 122.524 445.625 122.524C446.318 122.524 446.865 122.37 447.265 122.064C447.665 121.757 447.865 121.37 447.865 120.904C447.865 120.424 447.652 120.07 447.225 119.844C446.798 119.604 446.138 119.37 445.245 119.144C444.432 118.93 443.765 118.717 443.245 118.504C442.738 118.277 442.298 117.95 441.925 117.524C441.565 117.084 441.385 116.51 441.385 115.804C441.385 115.244 441.552 114.73 441.885 114.264C442.218 113.797 442.692 113.43 443.305 113.164C443.918 112.884 444.618 112.744 445.405 112.744C446.618 112.744 447.598 113.05 448.345 113.664C449.092 114.277 449.492 115.117 449.545 116.184H447.725C447.685 115.61 447.452 115.15 447.025 114.804C446.612 114.457 446.052 114.284 445.345 114.284C444.692 114.284 444.172 114.424 443.785 114.704C443.398 114.984 443.205 115.35 443.205 115.804C443.205 116.164 443.318 116.464 443.545 116.704C443.785 116.93 444.078 117.117 444.425 117.264C444.785 117.397 445.278 117.55 445.905 117.724C446.692 117.937 447.332 118.15 447.825 118.364C448.318 118.564 448.738 118.87 449.085 119.284C449.445 119.697 449.632 120.237 449.645 120.904C449.645 121.504 449.478 122.044 449.145 122.524C448.812 123.004 448.338 123.384 447.725 123.664C447.125 123.93 446.432 124.064 445.645 124.064Z" fill="#111111"/>
<defs>
<filter id="filter0_d_1245_1008" x="81" y="8.87793" width="567" height="207.08" filterUnits="userSpaceOnUse" color-interpolation-filters="sRGB">
<feFlood flood-opacity="0" result="BackgroundImageFix"/>
<feColorMatrix in="SourceAlpha" type="matrix" values="0 0 0 0 0 0 0 0 0 0 0 0 0 0 0 0 0 0 127 0" result="hardAlpha"/>
<feOffset/>
<feGaussianBlur stdDeviation="10"/>
<feColorMatrix type="matrix" values="0 0 0 0 0 0 0 0 0 0 0 0 0 0 0 0 0 0 0.1 0"/>
<feBlend mode="normal" in2="BackgroundImageFix" result="effect1_dropShadow_1245_1008"/>
<feBlend mode="normal" in="SourceGraphic" in2="effect1_dropShadow_1245_1008" result="shape"/>
</filter>
<linearGradient id="paint0_linear_1245_1008" x1="9408.48" y1="14415.1" x2="22556.3" y2="14415.1" gradientUnits="userSpaceOnUse">
<stop stop-color="#FC5C7D"/>
<stop offset="1" stop-color="#6A82FB"/>
</linearGradient>
<radialGradient id="paint1_radial_1245_1008" cx="0" cy="0" r="1" gradientUnits="userSpaceOnUse" gradientTransform="translate(9941.33 8930.03) scale(2312.31 2345.4)">
<stop/>
<stop offset="1" stop-color="white"/>
</radialGradient>
<linearGradient id="paint2_linear_1245_1008" x1="7654.8" y1="11872.1" x2="18289" y2="11872.1" gradientUnits="userSpaceOnUse">
<stop stop-color="#FC5C7D"/>
<stop offset="1" stop-color="#6A82FB"/>
</linearGradient>
<linearGradient id="paint3_linear_1245_1008" x1="1600.09" y1="2269.01" x2="3623.42" y2="2269.01" gradientUnits="userSpaceOnUse">
<stop stop-color="#FC5C7D"/>
<stop offset="1" stop-color="#6A82FB"/>
</linearGradient>
</defs>
</svg>
