<svg width="24" height="24" viewBox="0 0 24 24" fill="none" xmlns="http://www.w3.org/2000/svg">
<path d="M22.4538 10.2667H17.1804L12.8338 14.5933C12.584 14.8417 12.246 14.9811 11.8938 14.9811C11.5415 14.9811 11.2036 14.8417 10.9538 14.5933L1.33378 5C1.3042 5.10869 1.28852 5.2207 1.28711 5.33333V18.6667C1.28711 19.0203 1.42759 19.3594 1.67763 19.6095C1.92768 19.8595 2.26682 20 2.62044 20H21.2871C21.6407 20 21.9799 19.8595 22.2299 19.6095C22.48 19.3594 22.6204 19.0203 22.6204 18.6667V10.2533L22.4538 10.2667ZM3.53378 18.6667H2.60711V17.7133L7.45378 12.9067L8.39378 13.8467L3.53378 18.6667ZM21.2738 18.6667H20.3404L15.4804 13.8467L16.4204 12.9067L21.2671 17.7133L21.2738 18.6667Z" fill="white"/>
<path d="M15.2931 10.2667H14.8264C14.3938 10.2722 13.9673 10.1633 13.5904 9.95086C13.2134 9.73843 12.8993 9.43008 12.68 9.05709C12.4607 8.6841 12.3439 8.25973 12.3415 7.82704C12.3391 7.39434 12.4512 6.96872 12.6664 6.59333L14.1931 4H2.6131C2.49346 4.00184 2.37462 4.01978 2.25977 4.05333L11.8931 13.6467L15.2931 10.2667Z" fill="white"/>
<path d="M17.8999 0.760039L14.0866 7.33337C13.9979 7.46359 13.9469 7.61583 13.9394 7.77322C13.9319 7.93061 13.9682 8.08701 14.0441 8.22507C14.12 8.36314 14.2327 8.47748 14.3697 8.55543C14.5066 8.63338 14.6624 8.6719 14.8199 8.66671H22.4533C22.6107 8.6719 22.7666 8.63338 22.9035 8.55543C23.0405 8.47748 23.1531 8.36314 23.2291 8.22507C23.305 8.08701 23.3412 7.93061 23.3337 7.77322C23.3262 7.61583 23.2753 7.46359 23.1866 7.33337L19.3733 0.760039C19.2981 0.631409 19.1905 0.524713 19.0612 0.450565C18.932 0.376417 18.7856 0.337402 18.6366 0.337402C18.4876 0.337402 18.3412 0.376417 18.2119 0.450565C18.0827 0.524713 17.9751 0.631409 17.8999 0.760039Z" fill="white"/>
</svg>
