<svg width="474" height="590" viewBox="0 0 474 590" fill="none" xmlns="http://www.w3.org/2000/svg">
<path d="M218.558 487.758C275.226 464.58 341.976 491.243 390.198 451.366C441.753 408.732 473.847 339.568 473.494 276.939C473.149 215.957 423.483 176.273 388.388 130.822C355.7 88.4867 326.803 42.2136 276.538 21.8594C222.659 0.0425247 159.434 -8.82133 100.221 14.1339C41.4416 36.9211 -4.79871 88.5654 -37.6975 143.68C-67.7102 193.96 -68.4542 250.177 -73.8752 305.795C-79.4288 362.772 -91.65 421.412 -69.5631 470.604C-45.2743 524.699 -7.94668 585.493 53.3473 589.143C114.988 592.813 158.132 512.474 218.558 487.758Z" fill="#464646"/>
</svg>
