<svg width="11" height="9" viewBox="0 0 11 9" fill="none" xmlns="http://www.w3.org/2000/svg">
<path d="M4.89993 0.760039L1.08659 7.33337C0.997874 7.46359 0.946943 7.61583 0.939444 7.77322C0.931945 7.93061 0.968171 8.08701 1.04411 8.22507C1.12004 8.36314 1.23272 8.47748 1.36966 8.55543C1.5066 8.63338 1.66244 8.6719 1.81993 8.66671H9.45326C9.61074 8.6719 9.76659 8.63338 9.90353 8.55543C10.0405 8.47748 10.1531 8.36314 10.2291 8.22507C10.305 8.08701 10.3412 7.93061 10.3337 7.77322C10.3262 7.61583 10.2753 7.46359 10.1866 7.33337L6.37326 0.760039C6.29805 0.631409 6.19048 0.524713 6.06124 0.450565C5.932 0.376417 5.78559 0.337402 5.63659 0.337402C5.48759 0.337402 5.34119 0.376417 5.21195 0.450565C5.0827 0.524713 4.97513 0.631409 4.89993 0.760039Z" fill="white"/>
</svg>
