<svg width="19" height="18" viewBox="0 0 19 18" fill="none" xmlns="http://www.w3.org/2000/svg">
<path d="M13.24 8.50987L14.81 6.93987L11.06 3.18987L9.49 4.75987L5.35 0.629868C4.57 -0.150132 3.3 -0.150132 2.52 0.629868L0.62 2.52987C-0.16 3.30987 -0.16 4.57987 0.62 5.35987L4.75 9.48987L0.15 14.0999C0.0500001 14.1999 0 14.3199 0 14.4599V17.4999C0 17.7799 0.22 17.9999 0.5 17.9999H3.54C3.67 17.9999 3.8 17.9499 3.89 17.8499L8.51 13.2299L12.64 17.3599C13.96 18.6799 15.4 17.4299 15.47 17.3599L17.37 15.4599C18.15 14.6799 18.15 13.4099 17.37 12.6299L13.24 8.50987ZM6.18 8.06987L2.04 3.93987L3.93 2.03987L5.2 3.30987L4.73 3.79987C4.54302 3.98685 4.43798 4.24044 4.43798 4.50487C4.43798 4.76929 4.54302 5.02289 4.73 5.20987C4.91698 5.39685 5.17057 5.50189 5.435 5.50189C5.69943 5.50189 5.95302 5.39685 6.14 5.20987L6.62 4.72987L8.07 6.17987L6.18 8.06987ZM14.06 15.9599L9.93 11.8299L11.83 9.92987L13.28 11.3799L12.8 11.8599C12.7074 11.9524 12.634 12.0624 12.5839 12.1833C12.5338 12.3043 12.508 12.4339 12.508 12.5649C12.508 12.6958 12.5338 12.8254 12.5839 12.9464C12.634 13.0674 12.7074 13.1773 12.8 13.2699C12.8926 13.3624 13.0025 13.4359 13.1235 13.486C13.2444 13.5361 13.3741 13.5619 13.505 13.5619C13.6359 13.5619 13.7656 13.5361 13.8865 13.486C14.0075 13.4359 14.1174 13.3624 14.21 13.2699L14.69 12.7899L15.96 14.0599L14.06 15.9599ZM17.71 4.03987C17.8027 3.94735 17.8762 3.83747 17.9264 3.71649C17.9766 3.59552 18.0024 3.46584 18.0024 3.33487C18.0024 3.2039 17.9766 3.07422 17.9264 2.95324C17.8762 2.83227 17.8027 2.72238 17.71 2.62987L15.37 0.289868C14.9 -0.180132 14.25 -0.000132293 13.96 0.289868L12.13 2.11987L15.88 5.86987L17.71 4.03987Z" fill="#15487F"/>
</svg>
