<svg width="20" height="20" viewBox="0 0 20 20" fill="none" xmlns="http://www.w3.org/2000/svg">
<path d="M0.0499878 11.0001H5.52699C5.6981 14.167 6.70754 17.2315 8.45199 19.8801C6.26692 19.5369 4.25718 18.4793 2.737 16.8726C1.21683 15.2659 0.271906 13.2008 0.0499878 11.0001ZM0.0499878 9.00012C0.271906 6.79942 1.21683 4.73429 2.737 3.12763C4.25718 1.52097 6.26692 0.46334 8.45199 0.120117C6.70754 2.76873 5.6981 5.83326 5.52699 9.00012H0.0499878ZM19.95 9.00012H14.473C14.3019 5.83326 13.2924 2.76873 11.548 0.120117C13.7331 0.46334 15.7428 1.52097 17.263 3.12763C18.7832 4.73429 19.7281 6.79942 19.95 9.00012ZM19.95 11.0001C19.7281 13.2008 18.7832 15.2659 17.263 16.8726C15.7428 18.4793 13.7331 19.5369 11.548 19.8801C13.2924 17.2315 14.3019 14.167 14.473 11.0001H19.951H19.95ZM7.52999 11.0001H12.47C12.3054 13.6996 11.4553 16.3126 9.99999 18.5921C8.54469 16.3126 7.69458 13.6996 7.52999 11.0001ZM7.52999 9.00012C7.69458 6.30063 8.54469 3.68768 9.99999 1.40812C11.4553 3.68768 12.3054 6.30063 12.47 9.00012H7.52999Z" fill="#15487F"/>
</svg>
